<svg xmlns="http://www.w3.org/2000/svg" width="1024" height="1024"><path fill="#fe7500" d="M510.273 196.705a385 385 0 0 0 4.497-.062c2.212-.042 4.423-.059 6.636-.069l3.916-.044c5.934.758 9.221 2.76 13.084 7.295 2.888 5.816 2.145 12.648 2.09 18.98q0 2.172.005 4.344 0 4.542-.034 9.083c-.029 3.859-.026 7.717-.013 11.576.007 2.989-.001 5.978-.014 8.967a719 719 0 0 0 0 4.264c.026 17.907.026 17.907-4.785 23.535-5.123 4.567-10.027 5.669-16.717 5.989l-2.184.113c-4.761.234-9.523.376-14.29.5-22.115.597-43.163 2.667-64.464 8.824l-2.044.585C414.276 306.933 394.132 318.11 378 334l-2.059 1.84c-14.957 13.791-24.127 35.146-25.04 55.332-.045 3.214.076 5.76 1.099 8.828l-1 1c2.064 16.747 6.964 33.119 19.277 45.242C372 448 372 448 372 450l1.79.836c2.1 1.106 3.745 2.299 5.585 3.789 25.101 18.93 55.66 23.347 86.163 25.985 8.637.75 17.268 1.573 25.9 2.39l2.735.259c10.644 1.009 21.28 2.039 31.89 3.366l2.808.336c2.054.272 4.095.643 6.129 1.039l1 2c1.81.376 1.81.376 3.977.469 28.018 2.566 55.682 19.616 73.777 40.656 16.43 20.006 25.543 46.9 23.246 72.875-3.381 31.92-14.066 59.359-36 83l-2.531 2.746c-23.021 23.955-58.697 41.743-92.344 42.692-4.238-.007-6.648-1.012-10.125-3.438-4.073-4.655-4.17-9.002-4.203-14.957l-.017-2.365q-.014-2.478-.02-4.956c-.01-2.515-.04-5.03-.072-7.544a2883 2883 0 0 1-.016-4.823l-.038-2.263c.024-5.587 1.145-9.784 5.07-13.862 3.198-1.713 6.518-2.251 10.046-2.917 13.293-2.837 25.86-8.28 33.883-19.622 8.091-12.528 9.754-26.272 6.903-40.799-1.466-6.512-4.111-12.17-7.536-17.892l-1.113-1.977C529.924 580.748 510.74 572.767 495 569c-6.357-1.34-12.5-2.295-19-2v-2l-3.958-.155c-14.145-.582-28.245-1.502-42.354-2.657l-3.25-.266C382.963 558.319 340.3 550.234 305 523l-2.89-2.21C283.552 506.102 264.955 485.104 258 462v-2l-2-1c-3.343-9.522-4.729-19.753-6.25-29.687l-.53-3.379c-6.268-42.925 9.076-87.089 34.155-121.559C298.008 284.745 315.052 266.312 335 252l3.578-2.629C361.123 232.914 386.39 220.47 413 212l2.279-.737c11.37-3.624 22.89-6.247 34.596-8.513l3.85-.746c18.782-3.525 37.457-5.196 56.548-5.3"/><path fill="#4ede66" d="M246 515c4.482 2.988 7.68 6.846 11.18 10.906 7.314 8.413 15.688 14.788 24.82 21.094l2.98 2.059c3.269 2.121 6.604 4.071 10.02 5.941l2.278 1.25c16.375 8.787 33.598 14.884 51.142 20.879 28.595 9.81 57.682 21.607 80.58 41.871l1.483 1.3c23.05 20.287 39.946 47.427 42.517 78.7.227 3.813.357 7.62.438 11.438l.104 2.91c.04 6.751.04 6.751-1.686 9.422-1.383 1.39-1.383 1.39-3.856 3.23-3.992-2.121-6.37-4.372-9.125-7.937C425.687 676.316 377.117 647.385 326 633c19.033 17.4 38.981 31.579 61 45 14.518 8.918 28.236 18.714 41 30l2.777 2.406c5.182 4.551 9.884 9.235 14.223 14.594l2.266 2.758c29.667 37.224 29.667 37.224 29.097 55.21C476 785 476 785 474.125 787.126c-7.665 2.146-15.54-.661-23.05-2.492-3.824-.787-7.19-.862-11.075-.633l1-2-2.373-.743C420.802 775.623 403.783 769.319 387 761l-2.483-1.2C364.91 750.286 346.79 737.85 330 724l-2.758-2.18c-18.911-15.052-35.577-32.491-49.868-51.954-1.2-1.63-2.42-3.243-3.644-4.854-5.501-7.325-10.203-15.06-14.73-23.012l-1.146-2.008c-18.202-32.263-33.537-75.748-26.624-113.25 1.147-4.084 3.013-7.517 5.77-10.742 3.15-1.575 5.52-1.348 9-1"/><path fill="#fea626" d="m494.313 350.875 3.194-.008c11.272-.022 22.523.09 33.786.578l2.79.118 2.582.125 2.253.109c2.116.206 4.03.659 6.082 1.203q3.996.674 8 1.313a773 773 0 0 1 21.063 3.75l2.65.491c2.11.415 4.201.922 6.287 1.446l1 2c1.797.562 1.797.562 3.965.902 27.84 5.67 53.4 24.372 73.035 44.098l1.554 1.546C674.497 420.553 683.12 434.594 690 450l.86 1.924c13.546 31.15 12.958 68.327.702 99.764-2.505 5.31-4.908 10.077-10.562 12.312-5.946-.205-5.946-.205-8.61-2.214-1.81-2.326-2.303-4.379-3.003-7.24l-.835-3.294-.865-3.502c-6.158-24.7-6.158-24.7-19.687-45.75a569 569 0 0 1-2.687-4.625C631.547 475.489 609.209 458.696 586 448a76 76 0 0 1-3.715-1.98C566.957 437.695 546.496 431.725 529 432l-1-1a225 225 0 0 0-8.762-1.023l-2.719-.267c-9.77-.904-19.526-1.165-29.332-1.335l-5.604-.115c-15.861-.312-31.72-.376-47.583-.26v-2l-3.875-.187c-8.665-1.007-15.481-5.264-21.371-11.57-5.063-6.474-9.046-14.764-8.504-23.075q.341-1.997.75-3.98l.425-2.12c2.197-9.9 7.25-17.26 15.575-23.068 6.382-3.919 13.144-6.14 20.313-8.203 2.626-.694 2.626-.694 4.687-1.797 3.485-.374 6.998-.435 10.5-.562l3.473-.127c12.778-.397 25.557-.422 38.34-.436"/><path fill="#bd68fe" d="m588 204 1-2 1 2c2.668.749 5.297 1.406 8 2s5.332 1.251 8 2l1 2c2.09.459 4.183.912 6.28 1.339 5.112 1.242 9.92 3.307 14.783 5.286l3.32 1.338c7.692 3.142 15.155 6.58 22.508 10.443A81 81 0 0 0 662 232c2 1 2 1 4.195 2.777 3.107 2.462 6.363 4.624 9.68 6.786 11.856 7.846 23.037 15.961 33.32 25.808 2.74 2.65 2.74 2.65 5.672 4.852L717 274v2l4 2v2h2c1.375 1.328 1.375 1.328 3 3.25l1.895 2.238c.694.83 1.39 1.658 2.105 2.512l2.262 2.605C743.754 304.022 753.425 318.575 762 334l1.273 2.273c6.608 11.876 12 23.992 16.727 36.727l.826 2.159c6.772 17.788 6.772 17.788 3.358 25.743-3.23 4.604-7.946 5.99-13.184 7.098-5.305.439-10.592.448-15.91.434l-4.612.015q-4.813.013-9.625-.003c-4.094-.011-8.187.009-12.282.038-3.17.018-6.34.018-9.51.012q-2.264 0-4.527.019c-16.79.119-16.79.119-23.706-6.636-2.65-4.172-4.855-8.531-7.078-12.942-4.14-8.037-8.393-15.635-13.75-22.937l-1.167-1.59c-6.14-8.312-12.598-16.42-20.09-23.562C647 339 647 339 647 337l-1.73-.754c-2.61-1.433-4.429-3.127-6.582-5.183-17.549-16.52-17.549-16.52-38.688-25.063v-2l-2.437-.75c-4.306-1.51-8.417-3.352-12.563-5.25l-1 2v-3l-2.187-.387c-6.491-1.415-13.055-3.855-17.813-8.613v-2h-3c-.902-15.596-1.133-31.182-1.177-46.801q-.01-3.252-.031-6.503c-.018-3.098-.022-6.196-.022-9.294l-.022-2.816c.022-6.413.07-12.941 4.314-18.086 7.66-3.912 16.124-.721 23.938 1.5"/><path fill="#32b0fe" d="m701.438 610.688 5.721.445q3.135.249 6.27.505c4.093.33 8.188.625 12.283.913q5.305.375 10.608.76 2.607.189 5.212.37 3.687.259 7.37.538l2.213.148c6.695.521 12.048 1.796 16.885 6.633 2.59 5.061 2.04 9.589 1 15-.939 2.833-2.167 5.458-3.5 8.125l-1.077 2.21C756.24 662.831 745.75 677.853 734 692l-1.255 1.544c-11.492 14.122-24.626 26.374-39.187 37.288a419 419 0 0 0-4.242 3.234c-32.365 24.385-69.633 38.285-108.52 48.169-2.723.647-2.723.647-4.796 1.765-2.135.252-4.27.5-6.41.719-2.583.28-5.147.627-7.719 1C550.91 787.3 540.074 788.616 529 789l-3.484.125c-9.016.17-18.83.348-26.141-5.645-3.396-3.656-4.398-7.147-4.312-12.043 1.373-5.035 3.089-8.374 7.692-11.022 3.204-1.397 6.043-2.169 9.472-2.81l3.596-.696 3.802-.721C543.297 751.51 575.206 744.794 593 727c1.79-1.02 3.61-1.961 5.441-2.902 1.89-1.1 1.89-1.1 2.559-4.098a70 70 0 0 1 4-1c1.735-1.132 1.735-1.132 3.355-2.59l1.873-1.611 1.96-1.736 2.031-1.785c5.347-4.761 10.181-9.79 14.781-15.278l2.414-2.758C647.288 675.631 647.288 675.631 656 655h2l.75-2.437c4.229-12.052 4.229-12.052 7.25-13.563.703-1.988 1.362-3.99 2-6 3.995-9.404 7.953-17.532 17.469-22.215 5.389-1.198 10.499-.564 15.968-.097"/><path fill="#fea133" d="m734.563 423.531 4.2-.023q4.383-.019 8.765-.009c3.723.006 7.443-.025 11.165-.065a834 834 0 0 1 8.664-.025q2.057-.002 4.114-.03c8.17-.094 15.043.187 21.529 5.621 7.37 9.63 7.673 24.726 8.688 36.313l.189 2.112c2.014 22.77.86 44.679-1.602 67.337-.263 3.098-.324 6.13-.275 9.238h-2l-.122 1.805c-.54 6.592-1.838 12.712-3.628 19.07l-.812 2.916c-6.522 22.88-6.522 22.88-15 29.084-4.174 1.366-8.077 1.674-12.446 1.941-3.695.227-7.324.69-10.992 1.184l-1-2h-3v2l-5-1v-2l-2.611-.228q-4.857-.433-9.712-.889a751 751 0 0 0-4.18-.375c-19.849-1.73-19.849-1.73-25.06-7.196-2.427-5.594-2.026-10.314.137-15.87a408 408 0 0 1 2.114-4.88c8.654-20.684 12.946-41.178 12.812-63.625l-.005-2.416c-.094-19.252-3.203-37.094-10.259-55.07-1.808-4.662-2.704-8.358-2.236-13.451 1.404-3.174 2.574-5.241 5.707-6.908 7.193-2.585 14.288-2.565 21.856-2.56"/><path fill="#fd8c03" d="M537 204c3.137 3.405 3.379 5.806 3.388 10.37l.029 3.915-.019 4.227q.003 2.179.01 4.357.005 4.568-.017 9.137c-.017 3.882-.007 7.764.01 11.646.012 3.002.008 6.004 0 9.006q-.004 2.145.008 4.29c.069 17.986.069 17.986-4.755 23.625-5.12 4.568-10.026 5.67-16.716 5.99l-2.184.113c-4.761.234-9.523.376-14.29.5-22.115.597-43.163 2.667-64.464 8.824l-2.044.585C414.276 306.933 394.132 318.11 378 334l-2.059 1.84c-14.957 13.791-24.127 35.146-25.04 55.332-.045 3.214.076 5.76 1.099 8.828l-1 1c2.064 16.747 6.964 33.119 19.277 45.242C372 448 372 448 372 450l1.79.836c2.1 1.106 3.745 2.299 5.585 3.789 25.101 18.93 55.66 23.347 86.163 25.985 8.637.75 17.268 1.573 25.9 2.39l2.735.259c10.644 1.009 21.28 2.039 31.89 3.366l2.808.336c2.054.272 4.095.643 6.129 1.039l1 2c1.81.376 1.81.376 3.977.469 28.018 2.566 55.682 19.616 73.777 40.656 16.43 20.006 25.543 46.9 23.246 72.875-3.381 31.92-14.066 59.359-36 83l-2.531 2.746c-23.021 23.955-58.697 41.743-92.344 42.692-4.238-.007-6.648-1.012-10.125-3.438-4.073-4.655-4.17-9.002-4.203-14.957l-.017-2.365q-.014-2.478-.02-4.956c-.01-2.515-.04-5.03-.072-7.544a2883 2883 0 0 1-.016-4.823l-.038-2.263c.02-4.786.856-8.019 3.366-12.092 4.856-4.694 10.66-4.107 17-4v4l2.738-.91c1.18-.38 2.36-.76 3.574-1.153l3.551-1.16C525 676 525 676 528 677c-6.417 3.209-12.724 5.08-19.678 6.692-3.448.565-3.448.565-6.322 2.308-.23 2.072-.396 4.15-.535 6.23l-.264 3.874-.13 2.032q-.2 3.039-.409 6.077c-.611 8.386-.611 8.386-.662 16.787 1.84 1.84 4.703 1.471 7.188 1.688l3.417.324c3.604-.013 6.042-.755 9.395-2.012 2.469-.548 4.94-.99 7.43-1.43 3.942-.718 7.608-1.444 11.258-3.133 3.487-1.513 6.546-2.053 10.312-2.437v-2l1.977-.734c5.133-1.97 9.52-4.063 14.023-7.266l3.313-1.75c3.157-1.747 5.61-3.921 8.25-6.375 3.39-3.137 5.975-4.569 10.437-5.875 1.125-1.833 1.125-1.833 2-4 2.5-2.75 2.5-2.75 5-5h2l.797-1.746c1.27-2.378 2.733-4.244 4.453-6.317 3.945-4.99 6.823-10.308 9.75-15.937a1760 1760 0 0 1 3.125-5.687 211 211 0 0 0 5.125-9.938C621 638 621 638 623 637l-1-3c.344-1.86.344-1.86 1-4l.719-2.516.781-2.734c1.27-4.603 1.983-9.012 2.5-13.75l1-2c0-2.01-.002-4.019-.062-6.027C628 601 628 601 629 598c-.385-1.961-.385-1.961-1-4-.458-3.01-.784-6.036-1.125-9.062l-.3-2.471-.27-2.377-.25-2.16C626 576 626 576 627 573h-2l-.812-2.754c-2.222-7.124-4.72-13.785-8.25-20.371l-.995-1.862c-2.01-3.64-4.26-6.841-6.943-10.013l-1.57-1.922c-30.627-36.014-79.942-41.214-124.194-44.9-5.679-.453-11.363-.813-17.048-1.178-31.359-2.036-64.538-7.488-90.188-27l-3.48-2.523C356.083 449.07 342.105 432.229 338 413c-2.52-18.3-2.555-35.955 5-53l1.266-2.973C349.044 346.721 356.24 338.184 364 330l2.527-2.723C380.822 312.353 399.041 301.944 418 294l2.007-.851c22.666-9.457 47.39-13.214 71.856-13.352l3.08-.02c4.197-.02 8.392-.033 12.588-.007 3.111.015 6.22-.008 9.332-.036l2.866.047c4.427-.066 6.672-.363 10.37-2.942 3.135-4.69 2.56-10.529 2.493-15.957a338 338 0 0 1-.009-6.207c.021-4.392.002-8.783-.02-13.175a1646 1646 0 0 1 0-15.277 495 495 0 0 0-.04-6.092c.032-11.366.032-11.366 4.477-16.131"/><path fill="#62ed79" d="M246 515c4.482 2.988 7.68 6.846 11.18 10.906 7.314 8.413 15.688 14.788 24.82 21.094l2.98 2.059c3.269 2.121 6.604 4.071 10.02 5.941l2.278 1.25c16.375 8.787 33.598 14.884 51.142 20.879 28.595 9.81 57.682 21.607 80.58 41.871l1.483 1.3C453.47 640.533 470.541 667.763 473 699c.155 3.854.221 7.705.25 11.563l.029 2.961-.013 2.792-.007 2.514C473 721 473 721 471 724c-2.625.188-2.625.188-5 0l-1-2 1-2h-2l.5-3.437c1.184-7.966 1.184-7.966-.5-15.563-.153-1.393-.274-2.79-.375-4.187-.374-3.627-1.166-6.458-2.758-9.77-1.105-2.603-1.797-5.256-2.555-7.98-8.895-29.428-30.199-50.952-55.59-66.976a326 326 0 0 1-4.46-2.88c-16.319-10.178-35.024-16.685-53.074-23.07-17.755-6.33-35.5-12.661-52.332-21.207a185 185 0 0 0-5.172-2.465c-10.988-5.143-20.534-12.284-29.497-20.403-.51-.46-1.02-.92-1.544-1.395-2.368-2.212-3.6-3.537-4.643-6.667-1.6-1.587-1.6-1.587-3.5-3.062-3.4-2.739-3.4-2.739-4.5-4.938h-3c-.332 17.991.549 35.246 4.355 52.855.497 2.425.836 4.688 1.02 7.145 3.208 27.41 22.578 55.429 38.625 77l1.342 1.822C294.098 675.287 302.946 684.654 312 694l1.514 1.58c7.587 7.917 15.808 14.732 24.63 21.213l2.76 2.036a667 667 0 0 0 5.543 4.031l2.565 1.882 2.327 1.683L353 728v3l2.25.813C358 733 358 733 360.063 734.563c1.818 1.554 1.818 1.554 3.937 1.875 2 .562 2 .562 3.73 2.355 7.552 7.344 18.565 11.404 28.286 15.078C399 755 399 755 401 756v2l1.793.586c6.767 2.23 6.767 2.23 9.894 3.539 2.387 1 2.387 1 5.375 1.313 3.172.607 4.43 1.64 6.938 3.562h4v2l2.195-.117c3.017.126 4.928.788 7.68 1.992 5.953 2.5 11.743 4.132 18.125 5.125l2.125.688c2.508.418 3.687-.503 5.875-1.688-1.361-4.548-2.757-8.838-5.187-12.937C458 759 458 759 458 757h-2l-1.187-3.062c-2.209-5.132-5.198-9.334-9.157-13.266-2.779-2.796-5.28-5.757-7.781-8.797C428.632 720.85 418.475 711.61 407 703l-2.738-2.082c-5.24-3.904-10.646-7.507-16.137-11.043l-2.157-1.389-2.23-1.435-7.33-4.718C364.919 674.918 353.974 667.38 344 658l-1.929-1.8a513 513 0 0 1-5.884-5.638l-1.835-1.755c-3.193-3.182-4.87-5.164-5.352-9.807a88 88 0 0 0-4-2c-1.81-1.908-3.376-3.925-5-6 4.845 0 7.868 2.9 11.25 6.188L334 640c13.562 13.052 29.045 23.16 45 33 17.193 10.655 33.822 21.58 49 35l2.777 2.406c5.182 4.551 9.884 9.235 14.223 14.594l2.266 2.758c29.667 37.224 29.667 37.224 29.097 55.21C476 785 476 785 474.125 787.126c-7.665 2.146-15.54-.661-23.05-2.492-3.824-.787-7.19-.862-11.075-.633l1-2-2.373-.743C420.802 775.623 403.783 769.319 387 761l-2.483-1.2C364.91 750.286 346.79 737.85 330 724l-2.758-2.18c-18.911-15.052-35.577-32.491-49.868-51.954-1.2-1.63-2.42-3.243-3.644-4.854-5.501-7.325-10.203-15.06-14.73-23.012l-1.146-2.008c-18.202-32.263-33.537-75.748-26.624-113.25 1.147-4.084 3.013-7.517 5.77-10.742 3.15-1.575 5.52-1.348 9-1"/><path fill="#46bcfd" d="m701.438 610.688 5.721.445q3.135.249 6.27.505c4.093.33 8.188.625 12.283.913q5.305.375 10.608.76 2.607.189 5.212.37 3.687.259 7.37.538l2.213.148c6.695.521 12.048 1.796 16.885 6.633 2.59 5.061 2.04 9.589 1 15-.939 2.833-2.167 5.458-3.5 8.125l-1.077 2.21C756.24 662.831 745.75 677.853 734 692l-1.255 1.544c-11.492 14.122-24.626 26.374-39.187 37.288a419 419 0 0 0-4.242 3.234c-32.365 24.385-69.633 38.285-108.52 48.169-2.723.647-2.723.647-4.796 1.765-2.135.252-4.27.5-6.41.719-2.583.28-5.147.627-7.719 1C550.91 787.3 540.074 788.616 529 789l-3.484.125c-9.016.17-18.83.348-26.141-5.645-3.396-3.656-4.398-7.147-4.312-12.043 1.373-5.035 3.089-8.374 7.692-11.022 3.204-1.397 6.043-2.169 9.472-2.81l3.596-.696 3.802-.721C543.297 751.51 575.206 744.794 593 727c1.79-1.02 3.61-1.961 5.441-2.902 1.89-1.1 1.89-1.1 2.559-4.098a70 70 0 0 1 4-1c1.735-1.132 1.735-1.132 3.355-2.59l1.873-1.611 1.96-1.736 2.031-1.785c5.347-4.761 10.181-9.79 14.781-15.278l2.414-2.758C647.288 675.631 647.288 675.631 656 655h2l.75-2.437c4.229-12.052 4.229-12.052 7.25-13.563.703-1.988 1.362-3.99 2-6 3.995-9.404 7.953-17.532 17.469-22.215 5.389-1.198 10.499-.564 15.968-.097M682 627l-2.312 2.438c-1.51 2.291-2.158 3.807-2.938 6.375-3.537 11.508-10.178 22.187-16.281 32.492-1.628 2.476-1.628 2.476-1.469 4.695h-3a79 79 0 0 0-4.25 6.438c-3.225 5.241-6.6 10.143-10.535 14.89-1.41 1.597-1.41 1.597-1.215 3.672h-2c-3.636 3.48-3.636 3.48-5 8h-2l-1.625 2.063c-3.095 3.828-6.598 6.793-10.375 9.937l-1.527 1.294c-19.274 16.27-40.416 28.238-64.392 36.027q-2.028.661-4.045 1.354c-10.853 3.729-21.749 5.52-33.123 6.982l-3.41.448-3.067.38c-2.604.32-2.604.32-4.436 2.515-.462 2.433-.462 2.433-.625 5.125l-.227 2.758L504 777c9.745 3.864 23.791 6.403 34 3 3.457-.259 6.909-.443 10.371-.605 3.617.134 3.617.134 6.629-1.395 1.974 0 3.948.003 5.922.031 2.45-.037 4.705-.438 7.078-1.031v-2l1.788-.115c6.785-.546 13.053-1.948 19.587-3.822l3.236-.92C610.83 764.837 629.119 758.756 646 750l2.809-1.445A275 275 0 0 0 657 744l1.702-.976c7.869-4.535 15.42-9.354 22.73-14.75 4.23-3.113 4.23-3.113 6.634-4.262 2.824-1.478 4.87-3.58 7.184-5.762 3.107-2.898 6.201-5.684 9.688-8.125C721.537 698.102 735.564 679.403 746 662l1.477-2.41c1.53-2.517 3.026-5.053 4.523-7.59l2.082-3.422c3.816-6.358 7.058-12.082 7.918-19.578-.684-2.991-.684-2.991-2.562-4.187-2.746-.916-5.131-.897-8.004-.82-4.817.015-9.659-.374-14.434-.993l-1-1c-3.065-.161-5.055.018-8 1-2.375-.086-2.375-.086-5-.375l-2.625-.273C718 622 718 622 715 621c-1.5-.043-3-.04-4.5 0-2.96.079-4.633-.044-7.5-1-2.34.278-4.676.605-7 1v-2c-6.892-1.378-9.848 3.27-14 8"/><path fill="#febf44" d="M490.512 350.87q4.83.005 9.66-.007c10.395-.003 20.77.131 31.156.582.918.04 1.837.078 2.783.118l2.574.125 2.242.109c2.112.207 4.024.66 6.073 1.203q3.996.674 8 1.312a773 773 0 0 1 21.063 3.75l2.65.492c2.11.415 4.201.922 6.287 1.446l1 2c1.797.562 1.797.562 3.965.902 27.84 5.67 53.4 24.372 73.035 44.098l1.554 1.546C674.497 420.553 683.12 434.594 690 450l.86 1.924c13.23 30.424 13.195 67.23 1.335 98.07-1.439 3.53-2.93 6.93-5.195 10.006-3.427.36-5.881.56-9-1l.625-3.375L679 552l-2-2c-.59-1.825-.59-1.825-1.078-4.043l-.57-2.481-.602-2.664C669.435 518.658 659.27 499.646 645 482l-1.53-1.912c-6.476-8.044-13.177-14.86-21.47-21.088l-2.793-2.23C602.992 444.056 583.71 434.874 564 429v-2h-4l-1-4c20.118.52 40.836 11.707 57 23l2.957 2.031C627.324 453.93 634.862 460.67 642 468l1.553 1.489c4.274 4.133 7.868 8.446 11.26 13.323l1.547 2.217c12.138 17.704 20.922 36.747 25.765 57.721L683 546l2 1c7.959-29.75 9.275-59.844-2-89-.345-.945-.69-1.89-1.047-2.863C674.974 437.092 663.148 422.878 650 409l-1.672-1.82c-1.441-1.436-1.441-1.436-4.328-2.18l-1.79-2.262c-2.511-3.111-5.333-5.287-8.585-7.55l-1.875-1.313c-17.191-11.857-36.238-20.509-56.562-25.353a260 260 0 0 1-4.297-1.064c-26.315-6.743-54.141-6.943-81.159-7.186-2.945-.03-5.89-.074-8.835-.118a3077 3077 0 0 0-8.645-.114q-2.996-.036-5.99-.078c-5.184-.044-10.251-.052-15.399.6-3.329.377-4.813.353-7.863-.562v2l-3.687.312c-3.816.487-6.103 1.496-9.313 3.688a723 723 0 0 1-4.375 2.312c-5.309 2.952-10.29 6.02-13.062 11.563L412 382h-2q-.118 3.906-.187 7.812l-.077 2.237c-.138 4.182-.138 4.182 1.666 7.81L413 401c3.093 4.309 3.093 4.309 2.688 7.312L415 410h-2c-1.219-1.39-1.219-1.39-2.5-3.25l-1.281-1.828c-4.173-6.58-5.74-14.516-5.094-22.297 1.977-8.188 8.317-13.957 14.875-18.875 8.04-4.69 16.769-7.84 26.055-8.54 2.16-.164 2.16-.164 4.945-1.21l1-2c13.177-.92 26.304-1.156 39.512-1.13"/><path fill="#cb7dfb" d="m588 204 1-2 1 2c2.668.749 5.297 1.406 8 2s5.332 1.251 8 2l1 2c2.09.459 4.183.912 6.28 1.339 5.112 1.242 9.92 3.307 14.783 5.286l3.32 1.338c7.692 3.142 15.155 6.58 22.508 10.443A81 81 0 0 0 662 232c2 1 2 1 4.195 2.777 3.107 2.462 6.363 4.624 9.68 6.786 11.856 7.846 23.037 15.961 33.32 25.808 2.74 2.65 2.74 2.65 5.672 4.852L717 274v2l4 2v2h2c1.375 1.328 1.375 1.328 3 3.25l1.895 2.238c.694.83 1.39 1.658 2.105 2.512l2.262 2.605C743.754 304.022 753.425 318.575 762 334l1.273 2.273C769.875 348.138 775.288 360.269 780 373l1.16 2.98c1.157 4.16 1.5 8.222 1.778 12.52.08.829.16 1.658.244 2.512.278 4.324.246 7.072-2.553 10.52-4.34 4.074-6.879 3.56-12.629 3.468v-2l-52-1 1-2c6.693-1.447 13.833-1.112 20.645-1.027l5.986.037q4.658.037 9.315.086c3.025.03 6.049.048 9.074.064l2.81.04c6.33.061 6.33.061 12.17-2.2 1.66-4.056.648-7.083-.687-11.125l-1.137-3.465c-1.665-4.828-3.343-9.643-5.176-14.41l-.813-2.177c-2.498-6.504-5.558-12.549-8.937-18.635l-1.606-2.916C752.65 333.462 746.282 323 739 313l-2.05-2.828c-11.808-16.023-24.69-30.893-40.755-42.758-2.729-2.025-5.3-4.187-7.867-6.413-4.882-4.231-9.53-7.49-15.465-10.063C671 250 671 250 670 248l-3-1v-2l-5-1v-2l-1.75-.437L658 241l-2.062-.375C654 240 654 240 652.672 238.582c-2.004-1.896-3.776-2.574-6.36-3.52-12.714-4.865-12.714-4.865-14.312-8.062-1.66-.361-3.33-.686-5-1-2.778-.88-5.51-1.882-8.25-2.875l-4.559-1.625L610 220c-6.33-2.297-6.33-2.297-13-3v-2l-3.437-.437-2.204-.282q-2.355-.28-4.718-.5c-3.382-.318-6.175-.586-9.328-1.906-3.055-1.156-5.155-.488-8.313.125l.108 3.697q.195 6.849.374 13.698.08 2.954.166 5.906.123 4.268.23 8.535l.083 2.627c.125 5.254-.16 10.298-.836 15.512-.3 2.094-.3 2.094.875 4.025-.288 2.013-.579 4.026-.941 6.027-.26 2.3-.26 2.3 1.941 4.973v3l7 2v2l1.766.262c7.268 1.245 13.54 3.696 20.234 6.738l2.147.95c11.38 5.048 21.795 10.71 31.853 18.05l1.71 1.238C649 320.943 663.478 332.554 673 346c.25 3.813.25 3.813 0 7-3.865-1.52-5.677-3.812-8.187-7.062C657.47 336.75 649.217 329.268 640 322l-3.062-2.473C616.5 303.203 593.668 294.147 569 286v5c-1.937-.812-1.937-.812-4-2l-1-3h-3c-.902-15.596-1.133-31.182-1.177-46.801q-.01-3.252-.031-6.503c-.018-3.098-.022-6.196-.022-9.294l-.022-2.816c.022-6.413.07-12.941 4.314-18.086 7.66-3.912 16.124-.721 23.938 1.5"/><path fill="#fdb84c" d="m734.563 423.531 4.2-.023q4.383-.019 8.765-.009c3.723.006 7.443-.025 11.165-.065a834 834 0 0 1 8.664-.025q2.057-.002 4.114-.03c8.17-.094 15.043.187 21.529 5.621 7.37 9.63 7.673 24.726 8.688 36.313l.189 2.112c2.014 22.77.86 44.679-1.602 67.337-.263 3.098-.324 6.13-.275 9.238h-2l-.122 1.805c-.54 6.592-1.838 12.712-3.628 19.07l-.812 2.916c-6.522 22.88-6.522 22.88-15 29.084-4.174 1.366-8.077 1.674-12.446 1.941-3.695.227-7.324.69-10.992 1.184l-1-2h-3v2l-5-1v-2l-2.611-.228q-4.857-.433-9.712-.889a751 751 0 0 0-4.18-.375c-19.849-1.73-19.849-1.73-25.06-7.196-2.427-5.594-2.026-10.314.137-15.87a408 408 0 0 1 2.114-4.88c8.654-20.684 12.946-41.178 12.812-63.625l-.005-2.416c-.094-19.252-3.203-37.094-10.259-55.07-1.808-4.662-2.704-8.358-2.236-13.451 1.404-3.174 2.574-5.241 5.707-6.908 7.193-2.585 14.288-2.565 21.856-2.56m23.664 8.519c-6.639.122-13.277.282-19.914.45l-5.956.145q-7.178.174-14.357.355c-1.536 3.072-1.227 5.602-1 9 1.382 3.352 1.382 3.352 3 6h2l.332 2.465c1.03 7.45 2.203 14.845 3.615 22.232 6.094 32.993 2.525 70.159-12.444 100.38-2.082 4.26-2.082 4.26-2.23 8.935L712 584l1.898.402 2.477.535 2.46.528C721 586 721 586 723 587c2.207.07 4.417.084 6.625.063l3.602-.028L736 587v2l3.43.184 4.445.254 2.262.119c5.636.33 5.636.33 7.863 1.443 3.173.059 6.33.021 9.502-.04 3.126-.036 5.506.043 8.498 1.04l2.25-2.25c1.584-1.584 3.195-3.143 4.875-4.625 4.06-4.601 5.25-10.13 6.348-16.012.527-2.113.527-2.113 1.578-4.21 1.197-2.4 1.096-4.258.949-6.903l2-1c1.751-3.273 1.751-3.273 1.518-6.833-.646-2.7-.36-4.783.005-7.534l.407-3.188.445-3.32c1.876-14.243 2.834-28.317 2.813-42.687l-.001-2.103c.915-30.124.915-30.124-9.187-57.335-4.793-2.128-9.302-2.256-14.457-2.156l-2.49.024c-3.609.042-7.217.117-10.826.182"/><path fill="#fe5900" d="m440 352 11 1-1 2c-1.715.563-1.715.563-3.937 1l-2.477.516c-1.656.31-3.318.594-4.984.843-11.833 1.915-21.538 7.843-29.602 16.641-4.304 6.193-4.556 12.736-3.437 20.063 1.076 4.763 3.296 8.241 6.195 12.125C413 408 413 408 413 410h2l1-2 1.313 2.438c1.492 2.84 1.492 2.84 4.687 3.562v3l3.063.438c2.423.346 4.846.705 7.264 1.086 3.5.454 6.846.62 10.373.65l3.92.04 2.073.016q3.276.026 6.552.065 9.312.104 18.623.182c41.077.356 82.691 1.67 120.132 20.523l2.265 1.125c11.11 5.593 20.686 12.278 30.068 20.43a250 250 0 0 0 4.347 3.664c5.9 4.981 10.58 10.708 15.32 16.781l2.473 3.031c13.875 17.18 22.554 36.784 28.009 58.055.725 2.677 1.615 5.292 2.518 7.914.75 2.688.75 2.688 1 5l-2 3 8 1c-2 3-2 3-5.312 3.875-4.21.143-5.598-.042-8.688-2.875-2.344-5.58-3.883-11.194-5.312-17.062C663.194 530.18 658.247 512.246 648 502a569 569 0 0 1-2.687-4.625C631.547 475.489 609.209 458.696 586 448a76 76 0 0 1-3.715-1.98C566.957 437.695 546.496 431.725 529 432l-1-1a225 225 0 0 0-8.762-1.023l-2.719-.267c-9.77-.904-19.526-1.165-29.332-1.335l-5.604-.115c-15.861-.312-31.72-.376-47.583-.26v-2l-3.875-.187c-8.665-1.007-15.481-5.264-21.371-11.57-5.063-6.474-9.046-14.764-8.504-23.075q.341-1.997.75-3.98l.425-2.12c2.197-9.9 7.25-17.26 15.575-23.068 7.166-4.4 14.948-6.74 23-9z"/><path fill="#8af475" d="M246 515c4.482 2.988 7.68 6.846 11.18 10.906 7.314 8.413 15.688 14.788 24.82 21.094l2.98 2.059c3.269 2.121 6.604 4.071 10.02 5.941l2.278 1.25c16.375 8.787 33.598 14.884 51.142 20.879 28.595 9.81 57.682 21.607 80.58 41.871l1.483 1.3C453.47 640.533 470.541 667.763 473 699c.155 3.854.221 7.705.25 11.563l.029 2.961-.013 2.792-.007 2.514C473 721 473 721 471 724c-2.625.188-2.625.188-5 0l-1-2 1-2h-2l.5-3.437c1.184-7.966 1.184-7.966-.5-15.563-.153-1.393-.274-2.79-.375-4.187-.374-3.627-1.166-6.458-2.758-9.77-1.105-2.603-1.797-5.256-2.555-7.98-8.895-29.428-30.199-50.952-55.59-66.976a326 326 0 0 1-4.46-2.88c-16.319-10.178-35.024-16.685-53.074-23.07-17.755-6.33-35.5-12.661-52.332-21.207a185 185 0 0 0-5.172-2.465c-10.988-5.143-20.534-12.284-29.497-20.403-.51-.46-1.02-.92-1.544-1.395-2.368-2.212-3.6-3.537-4.643-6.667-1.6-1.587-1.6-1.587-3.5-3.062-3.4-2.739-3.4-2.739-4.5-4.938h-3c-.332 17.991.549 35.246 4.355 52.855.497 2.425.836 4.688 1.02 7.145 1.248 11.31 7.013 22.714 11.625 33h-2c-4.83-9.814-8.833-19.507-12-30l-1.195-3.785C240.23 576.514 239.499 569.04 240 560h-2c-.93-6.286-1.152-12.4-1.125-18.75l-.012-2.824.004-2.723.004-2.448c.126-2.209.518-4.134 1.129-6.255h2l1-4c3 0 3 0 4.875 1.688L248 527l2.313 2.313a574 574 0 0 1 4.316 4.351C265.096 544.647 265.096 544.647 278 552v2l2.23.836c2.572 1.08 4.735 2.296 7.082 3.789a189 189 0 0 0 30.5 14.938l2.048.798c4.004 1.505 4.004 1.505 8.14.639-.853-2.257-.853-2.257-3.469-3l-3.031-1a88 88 0 0 1-5.5-2l-1-2c-1.66-.362-3.329-.691-5-1a80 80 0 0 1-4.645-2.066l-2.548-1.221-2.62-1.275-2.677-1.288A1581 1581 0 0 1 291 557v-2l-10-3v-2a109 109 0 0 0-5.687-3.812c-4.318-2.726-7.799-5.486-11.313-9.188a735 735 0 0 0-2.937-2.937l-6.125-6.125-1.491-1.486a474 474 0 0 1-4.158-4.241c-2.392-2.31-4.087-3.368-7.289-4.211-3.826 1.275-4.196 2.47-6 6-2.664 5.923-2.188 11.833-2.062 18.188q.051 3.24.09 6.48l.054 2.884C234 554 234 554 233 557l2 1-.062 2.688c.057 3.021.432 5.37 1.062 8.312l.938 4.574q.53 2.558 1.062 5.114l.54 2.626.523 2.51.472 2.284c.409 1.964.409 1.964 1.465 3.892l-1 2 2 1a113 113 0 0 1 1.438 4.898c1.872 7.062 1.872 7.062 5.125 13.54 1.89 3.369 2.32 6.66 2.91 10.453L252 624l2 1a143 143 0 0 1 3.438 6.75c2.023 4.195 4.102 8.289 6.562 12.25 4 6.676 4 6.676 4 9h2v5c-4.348-3.73-6.84-8.456-9.625-13.375l-1.588-2.802C250.118 626.27 242.947 610.115 238 593l-.683-2.332c-5.683-19.814-13.396-49.543-4.141-69.16 3.52-5.838 5.714-7.219 12.824-6.508"/><path fill="#a147eb" d="M568 285c22.577 7.025 43.87 14.856 63 29l1.75 1.284c26.86 19.887 44.99 44.075 61.456 72.821a3258 3258 0 0 0 2.919 5.082l1.508 2.668c2.143 3.362 3.547 4.872 7.367 6.145 2.039.117 4.082.177 6.124.205l3.821.06q2.065.027 4.13.051l4.224.063q5.555.082 11.111.153 5.671.077 11.342.161 11.124.162 22.248.307v1c4.14.325 6.34.43 9.875-1.875 2.925-2.925 3.11-3.581 3.223-7.82a659 659 0 0 0-.035-4.43l-.014-2.285q-.02-2.795-.049-5.59c3.264 3.264 3.212 6.89 3.375 11.375-.053 3.592-.162 6.184-2.312 9.125-8.129 6.635-17.971 5.96-27.973 5.934l-4.612.015q-4.813.013-9.625-.003c-4.094-.011-8.187.009-12.282.038-3.17.018-6.34.018-9.51.012q-2.264 0-4.527.019c-16.79.119-16.79.119-23.706-6.636-2.65-4.172-4.855-8.531-7.078-12.942-4.14-8.037-8.393-15.635-13.75-22.937l-1.167-1.59c-6.14-8.312-12.598-16.42-20.09-23.562C647 339 647 339 647 337l-1.73-.754c-2.61-1.433-4.429-3.127-6.582-5.183-17.549-16.52-17.549-16.52-38.688-25.063v-2l-2.437-.75c-4.306-1.51-8.417-3.352-12.563-5.25l-1 2v-3l-2.168-.371c-2.883-.64-5.418-1.565-8.144-2.692l-2.676-1.097L569 292z"/><path fill="#fe5e00" d="M503.563 284.875q3.57.016 7.138.027 8.65.033 17.299.098l-2 5q-3.375.226-6.75.438l-2.251.14a438 438 0 0 1-14.554.606c-22.108.577-43.153 2.661-64.445 8.816l-2.044.585C414.276 306.933 394.132 318.11 378 334l-2.059 1.84c-14.957 13.791-24.127 35.146-25.04 55.332-.045 3.214.076 5.76 1.099 8.828l-1 1c2.194 17.797 7.706 34.4 21 47l-1 2c-10.463-4.083-16.182-14.918-20.687-24.625-8.776-20.046-8.312-41.533-1.403-62.082.912-2.19 1.937-4.22 3.09-6.293l1.527-2.848c3.881-6.96 8.351-13.065 13.473-19.152l2.313-3.062c4.13-4.516 8.865-8.186 13.687-11.938l2.598-2.04c34.466-26.096 75.729-33.398 117.964-33.085"/><path fill="#68cdfa" d="m701.438 610.688 5.721.445q3.135.249 6.27.505c4.093.33 8.188.625 12.283.913q5.305.375 10.608.76 2.607.189 5.212.37 3.687.259 7.37.538l2.213.148c6.695.521 12.048 1.796 16.885 6.633 2.601 5.084 1.894 9.564 1 15l-2-1c-.379-2.145-.379-2.145-.562-4.812-.23-3.183-.57-6.114-1.438-9.188h-3v-2c-12.318-1.418-24.546-2.309-36.947-2.57l-3.092-.086-2.756-.057C717 616 717 616 715 614c-4.52-.546-9.075-.463-13.625-.5l-3.816-.125c-6.757-.057-11.767.077-16.906 4.753-5.819 6.59-9.437 14.192-13.09 22.122-5.156 10.97-10.317 21.756-17.223 31.758-1.26 1.872-2.376 3.767-3.465 5.742-1.747 3.028-3.672 5.55-5.875 8.25l-1.297 2.285c-1.986 3.166-4.341 5.817-6.89 8.528l-1.558 1.665A828 828 0 0 1 626 704l-2.013 2.1a977 977 0 0 1-6.3 6.462l-1.99 2.056c-3.97 3.997-7.71 6.77-12.697 9.382-1.859 1.602-1.859 1.602-3 3 1.736.874 1.736.874 4 1a101 101 0 0 0 5-4l2.57-2.035 2.555-2.028 2.57-2.035c1.888-1.557 3.619-3.133 5.305-4.902l2 1c-18.91 20.229-44.836 33.848-70.919 42.32q-2.028.663-4.045 1.355c-10.796 3.709-21.636 5.507-32.948 6.982l-3.389.448-3.036.38c-2.558.495-4.416 1.224-6.663 2.515l-1-2c-2.042 1.692-2.918 2.637-3.512 5.262l-.175 2.426-.2 2.449L498 778h-2c-1.352-5.41-.856-8.27 1.7-13.203 2.848-3.936 5.957-5.202 10.613-6.172l3.488-.758q3.356-.698 6.716-1.374C542.084 751.735 575.195 744.805 593 727c1.79-1.02 3.61-1.961 5.441-2.902 1.89-1.1 1.89-1.1 2.559-4.098a70 70 0 0 1 4-1c1.735-1.132 1.735-1.132 3.355-2.59l1.873-1.611 1.96-1.736 2.031-1.785c5.347-4.761 10.181-9.79 14.781-15.278l2.414-2.758C647.288 675.631 647.288 675.631 656 655h2l.75-2.437c4.229-12.052 4.229-12.052 7.25-13.563.703-1.988 1.362-3.99 2-6 3.995-9.404 7.953-17.532 17.469-22.215 5.389-1.198 10.499-.564 15.968-.097"/><path fill="#fe9700" d="M537 204c3.137 3.405 3.379 5.806 3.388 10.37l.029 3.915-.019 4.227q.003 2.179.01 4.357.005 4.568-.017 9.137c-.017 3.882-.007 7.764.01 11.646.012 3.002.008 6.004 0 9.006q-.004 2.145.008 4.29c.069 18 .069 18-4.79 23.66-2.613 2.336-5.104 3.986-8.619 4.392l1-4q-10.318.104-20.636.262-3.495.05-6.99.084c-33.27.337-65.17 5.406-94.98 21.025L402 308l-2-1 2.438-.875c2.695-.858 2.695-.858 3.562-3.125l5-1c1.097-1.93 1.097-1.93 1.283-3.989C413 296 413 296 414.92 294.8l2.549-.983 2.882-1.115c1.04-.375 2.078-.751 3.149-1.139l3.247-1.191c20.847-7.353 43.067-10.452 65.116-10.574l3.08-.02c4.197-.02 8.392-.033 12.588-.007 3.111.015 6.22-.008 9.332-.036l2.866.047c4.427-.066 6.672-.363 10.37-2.942 3.135-4.69 2.56-10.529 2.493-15.957a338 338 0 0 1-.009-6.207c.021-4.392.002-8.783-.02-13.175a1646 1646 0 0 1 0-15.277 495 495 0 0 0-.04-6.092c.032-11.366.032-11.366 4.477-16.131"/><path fill="#c4f26b" d="M246 515c4.482 2.988 7.68 6.846 11.18 10.906 7.314 8.413 15.688 14.788 24.82 21.094l2.98 2.059c3.269 2.121 6.604 4.071 10.02 5.941l2.278 1.25c16.375 8.787 33.598 14.884 51.142 20.879C383.649 589.215 413.679 604.49 441 630l-3 1-1.328-1.434c-7.935-8.274-17.22-14.667-26.672-21.066l-1.924-1.314c-3.008-2.005-5.545-3.445-9.076-4.186v-2l-1.687-.344c-3.54-1.004-6.627-2.796-9.875-4.5-2.168-1.028-4.097-1.68-6.438-2.156v-2l-2.125-.375c-3.05-.663-5.916-1.639-8.875-2.625h-2v-2l-1.777-.513c-6.715-1.974-13.313-4.215-19.91-6.55-7.555-2.71-7.555-2.71-15.227-5.054-2.752-.788-5.191-1.726-7.774-2.946-2.757-1.298-5.33-2.284-8.312-2.937v-2l-2.21-.37c-2.737-.618-4.915-1.48-7.435-2.696l-2.548-1.221-2.62-1.275-2.677-1.288A1581 1581 0 0 1 291 557v-2l-10-3v-2a109 109 0 0 0-5.687-3.812c-4.318-2.726-7.799-5.486-11.313-9.188a735 735 0 0 0-2.937-2.937l-6.125-6.125-1.491-1.486a474 474 0 0 1-4.158-4.241c-2.392-2.31-4.087-3.368-7.289-4.211-3.826 1.275-4.196 2.47-6 6-2.664 5.923-2.188 11.833-2.062 18.188q.051 3.24.09 6.48l.054 2.884C234 554 234 554 233 557l2 1-.062 2.688c.057 3.021.432 5.37 1.062 8.312l.938 4.574q.53 2.558 1.062 5.114l.54 2.626.523 2.51.472 2.284c.409 1.964.409 1.964 1.465 3.892l-1 2 2 1a113 113 0 0 1 1.438 4.898c1.872 7.062 1.872 7.062 5.125 13.54 1.89 3.369 2.32 6.66 2.91 10.453L252 624l2 1a143 143 0 0 1 3.438 6.75c2.023 4.195 4.102 8.289 6.562 12.25 4 6.676 4 6.676 4 9h2v5c-4.348-3.73-6.84-8.456-9.625-13.375l-1.588-2.802C250.118 626.27 242.947 610.115 238 593l-.683-2.332c-5.683-19.814-13.396-49.543-4.141-69.16 3.52-5.838 5.714-7.219 12.824-6.508"/><path fill="#9642e6" d="M649 330c10.024 4.293 17.347 15.865 23.755 24.358a285 285 0 0 0 3.296 4.244c5.815 7.585 10.36 15.892 15.02 24.214a636 636 0 0 0 6.109 10.649l1.421 2.421c2.189 3.307 3.594 4.846 7.399 6.114 2.039.117 4.082.177 6.124.205l3.821.06q2.065.027 4.13.051l4.224.063q5.555.082 11.111.153 5.671.077 11.342.161 11.124.162 22.248.307v1c4.14.325 6.34.43 9.875-1.875 2.925-2.925 3.11-3.581 3.223-7.82a659 659 0 0 0-.035-4.43l-.014-2.285q-.02-2.795-.049-5.59c3.264 3.264 3.212 6.89 3.375 11.375-.053 3.592-.162 6.184-2.312 9.125-8.129 6.635-17.971 5.96-27.973 5.934l-4.612.015q-4.813.013-9.625-.003c-4.094-.011-8.187.009-12.282.038-3.17.018-6.34.018-9.51.012q-2.264 0-4.527.019c-8.034.057-14.67.097-21.534-4.515-3.833-4.035-6.105-7.96-6.75-13.5l-.297-2.281C686 386 686 386 687.121 384.105c1.13-2.055 1.13-2.055.24-4.021l-1.256-1.99-1.384-2.237-1.534-2.357-1.535-2.429c-5.214-8.147-10.839-15.911-17.215-23.196C662 345 662 345 662 343l-3-1c-1.719-1.777-1.719-1.777-3.5-3.937-2.129-2.573-3.684-4.186-6.5-6.063z"/><path fill="#f9a201" d="m477.438 198.938 2.62.027L482 199v3l-3.371-.086c-4.98.002-9.78.691-14.692 1.461l-2.603.383c-4.924.752-9.57 1.794-14.334 3.242-2.972.546-5.949.992-8.937 1.438-3.441.632-6.711 1.562-10.063 2.562l-3.562 1c-2.095.61-4.181 1.248-6.25 1.938a124 124 0 0 1-5.364 1.68c-6.853 1.945-13.284 4.574-19.824 7.382q-4.604 1.898-9.21 3.79c-10.953 4.754-21.828 10.627-31.79 17.21l-2.828 1.8c-5.679 3.675-10.875 7.445-15.746 12.145-2.15 1.821-4.252 3.24-6.625 4.743-5.28 3.463-9.536 7.676-13.926 12.187l-2.3 2.316C304.681 283.164 299.004 289.26 294 296a232 232 0 0 1-2.875 3.375l-1.578 1.836a1076 1076 0 0 1-4.172 4.789c-2.051 2.591-3.648 5.161-5.26 8.033a265 265 0 0 1-3.517 5.983c-8.5 14.157-14.303 28.365-19.598 43.984h-1c-.444-6.154 1.015-10.602 3.375-16.25l1.091-2.646C275.94 308.38 302.585 275.256 335 252l3.578-2.629C361.123 232.914 386.39 220.47 413 212l2.279-.737c19.04-6.068 42.073-12.6 62.159-12.326"/><path fill="#95f463" d="M242 522c5.75 3.5 5.75 3.5 6.96 5.926 1.24 2.475 2.676 3.737 4.79 5.511l2.16 1.829L258 537l1.684 1.422A355 355 0 0 0 266.5 544a146 146 0 0 1 4.04 3.324c2.484 2.136 4.318 3.629 7.46 4.676v2l2.23.836c2.572 1.08 4.735 2.296 7.082 3.789 15.716 9.466 32.461 15.527 49.671 21.656q8.924 3.178 17.83 6.407l1.906.69c9.058 3.292 17.812 6.931 26.422 11.259 2.632 1.506 2.632 1.506 4.859 1.363v2l2.563.754c3.744 1.357 7.046 3.129 10.437 5.183l1.966 1.188C417.23 617.947 430.18 629.217 441 642c-3 0-3 0-4.437-1.398L435 638.625c-14.311-16.924-34.1-29.262-54.062-38.437l-3.44-1.583c-10.48-4.737-21.175-8.613-32.031-12.386-17.866-6.281-35.703-12.704-52.611-21.289a185 185 0 0 0-5.172-2.465c-10.988-5.143-20.534-12.284-29.497-20.403-.51-.46-1.02-.92-1.544-1.395-2.368-2.212-3.6-3.537-4.643-6.667-1.6-1.587-1.6-1.587-3.5-3.062-3.4-2.739-3.4-2.739-4.5-4.938h-3c-.332 17.991.549 35.246 4.355 52.855.497 2.425.836 4.688 1.02 7.145 1.248 11.31 7.013 22.714 11.625 33h-2c-4.83-9.814-8.833-19.507-12-30l-1.195-3.785C240.23 576.514 239.499 569.04 240 560h-2c-.93-6.286-1.152-12.4-1.125-18.75l-.012-2.824.004-2.723.004-2.448c.126-2.209.518-4.134 1.129-6.255h2l.438-1.937C241 523 241 523 242 522"/><path fill="#8ce4f2" d="m701.438 610.688 5.721.445q3.135.249 6.27.505c4.093.33 8.188.625 12.283.913q5.305.375 10.608.76 2.607.189 5.212.37 3.687.259 7.37.538l2.213.148c6.695.521 12.048 1.796 16.885 6.633 2.601 5.084 1.894 9.564 1 15l-2-1c-.379-2.145-.379-2.145-.562-4.812-.23-3.183-.57-6.114-1.438-9.188h-3v-2c-12.318-1.418-24.546-2.309-36.947-2.57l-3.092-.086-2.756-.057C717 616 717 616 715 614c-4.52-.546-9.075-.463-13.625-.5l-3.816-.125c-6.757-.057-11.767.077-16.906 4.753-5.819 6.59-9.437 14.192-13.09 22.122-5.156 10.97-10.317 21.756-17.223 31.758-1.26 1.872-2.376 3.767-3.465 5.742-1.747 3.028-3.672 5.55-5.875 8.25l-1.297 2.285c-1.986 3.166-4.341 5.817-6.89 8.528l-1.558 1.665A828 828 0 0 1 626 704l-2.013 2.1a977 977 0 0 1-6.3 6.462l-1.99 2.056c-3.973 4-7.717 6.753-12.697 9.382l-2 2c-2.781 2.781-5.444 4.285-9 6-2.437-.25-2.437-.25-4-1 2.79-2.367 5.533-4.344 8.75-6.062 3.503-1.61 3.503-1.61 4.25-4.938a70 70 0 0 1 4-1c1.735-1.132 1.735-1.132 3.355-2.59l1.873-1.611 1.96-1.736 2.031-1.785c5.347-4.761 10.181-9.79 14.781-15.278l2.414-2.758C647.288 675.631 647.288 675.631 656 655h2l.75-2.437c4.229-12.052 4.229-12.052 7.25-13.563.703-1.988 1.362-3.99 2-6 3.995-9.404 7.953-17.532 17.469-22.215 5.389-1.198 10.499-.564 15.968-.097"/><path fill="#fd3a00" d="M512 570c11.933 1.132 22.507 8.18 30.555 16.805C553.69 600.543 556.43 616.799 555 634c-1.232 8.511-4.114 15.682-10 22l-3-1c1.007-3.176 2.08-6.17 3.5-9.187 5.243-12.253 4.377-26.58-.5-38.813a111 111 0 0 0-5-10l-1.047-1.867C532.283 584.644 520.95 578.972 510 574v-2h2z"/><path fill="#d78efd" d="M576 283c8.452 1.843 16.13 4.43 24 8l2.139.946c11.381 5.05 21.8 10.712 31.861 18.054l1.71 1.238C649 320.943 663.478 332.554 673 346c.25 3.813.25 3.813 0 7-3.865-1.52-5.677-3.812-8.187-7.062C657.47 336.75 649.217 329.268 640 322l-3.062-2.473c-16.701-13.34-35.317-22.664-55.603-29.27l-2.46-.812-2.195-.702C575 288 575 288 574 286l2-1z"/><path fill="#fe6800" d="m440 352 11 1-1 2c-1.715.563-1.715.563-3.937 1l-2.477.516c-1.656.31-3.318.594-4.984.843-11.833 1.915-21.538 7.843-29.602 16.641-4.304 6.193-4.556 12.736-3.437 20.063 1.076 4.763 3.296 8.241 6.195 12.125C413 408 413 408 413 410h2l1-2 1.313 2.438c1.492 2.84 1.492 2.84 4.687 3.562v3l3.063.438c2.346.335 4.69.684 7.03 1.062 4.78.612 9.533.851 14.344 1.063l2.795.13q3.384.159 6.768.307v1h-16v6l-6 1v-2l-3.875-.187c-8.665-1.007-15.481-5.264-21.371-11.57-5.063-6.474-9.046-14.764-8.504-23.075q.341-1.997.75-3.98l.425-2.12c2.197-9.9 7.25-17.26 15.575-23.068 7.166-4.4 14.948-6.74 23-9z"/><path fill="#fea907" d="M537 204c3.157 3.418 3.379 5.85 3.388 10.433l.029 3.955-.019 4.264q.003 2.193.01 4.386.005 4.594-.017 9.187c-.017 3.919-.007 7.837.01 11.756.012 3.019.008 6.037 0 9.056q-.004 2.168.008 4.334a551 551 0 0 1-.02 6.066l-.008 3.483c-.42 3.395-1.424 5.309-3.381 8.08l-1-4-5 3 .491-2.109c.547-3.107.64-5.992.65-9.147l.022-3.762.006-1.995q.012-3.109.041-6.218c.052-5.892.1-11.783.116-17.675.01-3.61.04-7.221.081-10.832q.02-2.056.015-4.113c-.016-13.207-.016-13.207 4.578-18.149"/><path fill="#fe6800" d="M351 365h1v6l2 1-.656 3.438L352.5 380l-.434 2.254c-1.088 5.962-2.02 11.882-.066 17.746l-1 1c2.194 17.797 7.706 34.4 21 47l-1 2c-10.463-4.083-16.182-14.918-20.687-24.625-7.997-18.266-8.052-37.251-3.313-56.375h2z"/><path fill="#fe7403" d="M664 517h2l5 13h2l.427 1.804a2016 2016 0 0 0 1.948 8.071l.672 2.84.664 2.715.603 2.507c.579 2.254.579 2.254 2.686 4.063-.327 2.616-.82 4.64-2 7l8 1c-2 3-2 3-5.312 3.875-4.21.143-5.598-.042-8.688-2.875-2.358-5.617-3.924-11.283-5.375-17.187-1.776-7.057-3.924-13.652-6.805-20.344C659 521 659 521 660 518l3 4z"/><path fill="#fbc559" d="M580 362c5.46-.284 9.864.622 14.938 2.5l2.23.81c7.922 2.962 15.391 6.687 22.832 10.69l1.848.977C652.164 393.084 675.752 418.972 690 450l1.383 2.984c2.127 4.91 3.082 8.666 2.617 14.016-1.69-2.535-2.696-4.548-3.77-7.352l-1.005-2.582q-1.023-2.654-2.04-5.312c-2.049-5.247-4.363-10.107-7.238-14.955C679 435 679 435 679 433h-2l-1-2.375c-5.425-10.75-15.942-21.577-25.187-29.25L648 399v-2l-1.749-.828c-2.24-1.166-4.214-2.467-6.27-3.93C621.021 378.91 602.07 370.168 580 363z"/><path fill="#a9f16b" d="M231 528h1l.438 3.438c.174 3.37.174 3.37 1.562 4.562.1 2.968.139 5.907.125 8.875l.012 2.512-.004 2.418-.004 2.218C234 554 234 554 233 557l2 1-.062 2.688c.057 3.021.432 5.37 1.062 8.312l.938 4.574q.53 2.558 1.062 5.114l.54 2.626.523 2.51.472 2.284c.409 1.964.409 1.964 1.465 3.892l-1 2 2 1a113 113 0 0 1 1.438 4.898c1.872 7.062 1.872 7.062 5.125 13.54 1.89 3.369 2.32 6.66 2.91 10.453L252 624l2 1a143 143 0 0 1 3.438 6.75c2.023 4.195 4.102 8.289 6.562 12.25 4 6.676 4 6.676 4 9h2v5c-4.348-3.73-6.84-8.456-9.625-13.375l-1.588-2.802C250.118 626.27 242.947 610.115 238 593l-.683-2.332c-5.74-20.016-9.574-41.904-6.317-62.668"/><path fill="#bb77fa" d="M673 347c8.052 7.32 13.44 17.096 18.938 26.375l1.783 2.941 1.681 2.832 1.516 2.537C698 384 698 384 698 388h2l1.5 3.25c2.474 4.419 5.91 5.956 10.5 7.75v3a71 71 0 0 1-4.125.438c-.766.08-1.531.162-2.32.246-4.767-1.276-7.259-5.604-9.775-9.641a214 214 0 0 1-3.405-6.293 342 342 0 0 0-11.812-20.187l-1.54-2.457-1.457-2.29-1.283-2.017c-1.233-1.853-1.233-1.853-2.928-3.346C672 355 672 355 671.75 351.938 672 349 672 349 673 347"/><path fill="#feac0e" d="m423 415 17 3v-2l-2-1c33.16-.19 33.16-.19 47 .438l2.725.118c6.009.31 6.009.31 8.275 1.444v2l1.772-.032c2.66-.041 5.319-.067 7.978-.093l2.79-.05 2.694-.02 2.476-.032c2.52.25 4.073 1.05 6.29 2.227q-16.065-.092-32.131-.236c-4.975-.044-9.95-.084-14.924-.11q-7.216-.041-14.433-.117-2.737-.025-5.475-.035c-10.767-.04-20.579-.684-31.037-3.502z"/><path fill="#18d483" d="M367 749c3.637.364 6.542 1.148 9.762 2.813l2.128 1.09L381 754c8.673 4.469 17.383 8.703 26.375 12.5l2.505 1.062c3.934 1.79 3.934 1.79 8.12 2.438v2l3.914.816c4.923 1.095 9.671 2.557 14.461 4.121q2.52.803 5.04 1.602 3.87 1.23 7.733 2.484c7.553 2.291 15 2.67 22.852 2.977.857-3.313 1.462-6.62 2-10 2.392 2.392 2.346 3.151 2.438 6.438-.13 4.212-.13 4.212-2.313 6.687-7.665 2.146-15.54-.661-23.05-2.492-3.824-.787-7.19-.862-11.075-.633l1-2-2.373-.743c-21.807-6.892-42.23-15.276-62.565-25.82l-2.442-1.265c-5.496-2.924-5.496-2.924-6.62-5.172"/><path fill="#c0fc6d" d="m272 550 6 2v2l2.23.836c2.572 1.08 4.735 2.296 7.082 3.789 15.716 9.466 32.461 15.527 49.671 21.656q8.924 3.178 17.83 6.407l1.906.69c9.058 3.292 17.812 6.931 26.422 11.259 2.632 1.506 2.632 1.506 4.859 1.363v2l2.563.754c3.744 1.357 7.046 3.129 10.437 5.183l1.966 1.188C417.23 617.947 430.18 629.217 441 642c-3 0-3 0-4.437-1.398L435 638.625c-14.311-16.924-34.1-29.262-54.062-38.437l-3.44-1.583c-10.48-4.737-21.175-8.613-32.031-12.386C278.304 562.608 278.304 562.608 272 550"/><path fill="#b9f26b" d="M331 572c4.577.628 8.653 1.807 12.996 3.371l2.005.72c2.148.775 4.293 1.56 6.437 2.346l2.229.816C387.339 591.24 415.802 605.665 441 630l-3 1-1.328-1.434c-7.935-8.274-17.22-14.667-26.672-21.066l-1.924-1.314c-3.008-2.005-5.545-3.445-9.076-4.186v-2l-1.687-.344c-3.54-1.004-6.627-2.796-9.875-4.5-2.168-1.028-4.097-1.68-6.438-2.156v-2l-2.125-.375c-3.05-.663-5.916-1.639-8.875-2.625h-2v-2l-1.772-.511c-7.802-2.291-15.443-4.977-23.101-7.704l-2.959-1.043-2.648-.942c-2.493-.791-4.948-1.338-7.52-1.8z"/><path fill="#3ddc76" d="M410 670c10.52 3.584 19.42 13.087 27.344 20.652 2.552 2.402 2.552 2.402 5.43 4 2.83 1.714 3.11 3.318 4.226 6.348l3 1v2h2c1.508 1.531 1.508 1.531 3.125 3.5l1.633 1.969L458 711c2.176-.93 2.176-.93 4-3 .131-2.895.063-5.342-.25-8.187-.066-.75-.131-1.5-.2-2.272A337 337 0 0 0 461 692c4.5 4.5 5.205 11.683 5.313 17.813-.018 3.86-.726 6.665-2.313 10.187h2v3l4 2-2 1c-4.066-1.94-6.398-4.407-9.125-7.937-10.524-13.239-22.273-25.987-35.902-36.063l-2.192-1.62a528 528 0 0 0-4.41-3.205l-2.055-1.503-1.86-1.34C411 673 411 673 410 670"/><path fill="#eba6f2" d="m588 204 1-2 1 2c2.489.852 5.006 1.471 7.555 2.121 2.548.916 3.722 1.831 5.445 3.879-5.175.33-8.858-.498-13.71-2.266-3.412-1.094-6.73-1.41-10.29-1.734v-2c-5.258-.315-8.48.267-13 3-2.856 2.856-2.277 4.835-2.319 8.836l-.03 2.13c-.031 2.326-.048 4.653-.065 6.98q-.028 2.416-.059 4.834c-.051 4.244-.09 8.489-.128 12.734-.04 4.33-.091 8.66-.141 12.99Q563.114 268.252 563 281h-1c-1.699-13.89-2.317-27.588-2.26-41.577.01-3.212 0-6.423-.013-9.634q0-3.105.007-6.21l-.012-2.867c.092-13.062.092-13.062 4.34-18.212 7.66-3.912 16.124-.721 23.938 1.5"/><path fill="#9df777" d="M320 630c4.515 1.419 6.717 3.66 10 7 13.167 12.108 27.43 22.71 42.706 31.992 3.865 2.367 7.272 4.564 10.294 8.008l-2 1-3-1v-2h-3v-2l-2.062-.75c-5.654-2.406-10.193-5.406-14.938-9.25a467 467 0 0 0-5.625-4.25l-2.852-2.14c-2.446-1.879-2.446-1.879-5.523-1.61l4.492 3.809c1.514 1.279 1.514 1.279 3.508 2.191l-1 3c-5.463-4.8-10.838-9.691-16.062-14.75l-2.786-2.672c-2.257-2.704-2.692-4.168-3.152-7.578a88 88 0 0 0-4-2c-5-5.142-5-5.142-5-7"/><path fill="#61cdf9" d="m535 755 1 5q-2.593.507-5.187 1l-2.918.563c-2.688.406-5.183.516-7.895.437v2l-2.703.367-3.547.508-3.516.492c-2.816.551-4.786 1.191-7.234 2.633l-1-2c-2.042 1.692-2.918 2.637-3.512 5.262l-.175 2.426c-.1 1.212-.1 1.212-.2 2.449L498 778h-2c-1.352-5.41-.856-8.27 1.7-13.203 2.973-4.108 6.261-5.272 11.113-6.297l3.453-.734L516 757q2.024-.443 4.047-.89 2.007-.432 4.015-.86l3.723-.797c2.896-.408 4.516-.45 7.215.547"/><path fill="#fbb200" d="M482 199v3l-3.371-.086c-4.98.002-9.78.691-14.692 1.461l-2.603.383c-4.924.752-9.57 1.794-14.334 3.242-2.972.546-5.949.992-8.937 1.438-3.441.632-6.711 1.562-10.063 2.562l-3.562 1c-2.095.61-4.181 1.248-6.25 1.938a124 124 0 0 1-5.364 1.68c-7.614 2.16-14.854 5.081-22.035 8.405-4.504 2.072-4.504 2.072-7.789.977 25.46-17.666 68.565-27.262 99-26"/><path fill="#70d5f0" d="m655 661 1 3c-1.293 2.234-1.293 2.234-3.187 4.75-2.17 2.957-4.245 5.841-6 9.063-1.716 3.016-3.625 5.506-5.813 8.187l-1.297 2.285c-1.986 3.166-4.341 5.817-6.89 8.528l-1.558 1.665A828 828 0 0 1 626 704l-2.013 2.1a977 977 0 0 1-6.3 6.462l-1.99 2.056c-3.973 4-7.717 6.753-12.697 9.382l-2 2c-2.781 2.781-5.444 4.285-9 6-2.437-.25-2.437-.25-4-1 2.79-2.367 5.533-4.344 8.75-6.062 3.503-1.61 3.503-1.61 4.25-4.938a70 70 0 0 1 4-1c1.735-1.132 1.735-1.132 3.355-2.59l1.873-1.611 1.96-1.736 2.031-1.785c5.347-4.761 10.181-9.79 14.781-15.278l2.414-2.758c7.504-8.712 14.19-18.052 19.75-28.129C653 662 653 662 655 661"/><path fill="#fe7b00" d="M350 401h1l.48 3.008c2.836 16.896 7.775 31.911 20.52 43.992l-1 2c-10.463-4.083-16.182-14.918-20.687-24.625-2.924-6.696-4.791-10.985-3.313-18.375l3 1z"/><path fill="#f7cc63" d="M734.879 423.707q2.133.009 4.266.013c3.714.011 7.427.04 11.14.074 3.802.03 7.603.044 11.404.06q11.155.05 22.311.146v2l2 1q-11.879.034-23.757.052-5.514.007-11.03.023-5.32.016-10.64.02-2.033.003-4.065.01c-1.893.008-3.787.008-5.681.009l-3.27.006C725 427 725 427 723 426v2l-2.687-.187c-3.739.211-5.38.906-8.313 3.187-1.468 1.851-1.468 1.851-2 4 .29 1.344.63 2.676 1 4q.538 2.374 1.063 4.75l.535 2.422L713 448l-2-1v-2h-2c-2.008-4.143-2.483-7.415-2-12 1.403-3.171 2.577-5.233 5.696-6.915 7.3-2.651 14.505-2.468 22.183-2.378"/><path fill="#a353d8" d="M782 382c3.264 3.264 3.212 6.89 3.375 11.375-.053 3.592-.162 6.184-2.312 9.125-8.191 6.686-18.08 5.93-28.149 5.863q-2.325 0-4.648.002-4.844 0-9.687-.029c-4.14-.023-8.279-.023-12.418-.016-3.192.003-6.383-.004-9.574-.013q-2.29-.006-4.581-.004-3.192-.002-6.382-.028l-3.666-.014C701 408 701 408 698 406h46v-1l14-1v-1h11v1c4.14.325 6.34.43 9.875-1.875 2.925-2.925 3.11-3.581 3.223-7.82a659 659 0 0 0-.035-4.43l-.014-2.285q-.02-2.795-.049-5.59"/><path fill="#cc87fd" d="M643 318c3.845 1.604 6.628 4.187 9.625 7l1.584 1.471c18.653 17.427 18.653 17.427 19.041 23.341L673 353c-3.865-1.52-5.677-3.812-8.187-7.062-4.96-6.23-10.144-12.492-16.813-16.938a179 179 0 0 1-2-4l-1.625-1.5C643 322 643 322 643 318"/><path fill="#11cd78" d="M386 689c4.466 1.554 8.23 3.935 12.125 6.563.662.445 1.325.89 2.007 1.35C410.555 704.014 419.834 712.375 429 721l2.184 2.02c4.728 4.519 8.647 9.49 12.492 14.765 1.064 1.438 2.19 2.831 3.324 4.215h2c1.727 2.266 1.727 2.266 3.625 5.25l1.914 2.953C456 753 456 753 456 757h2l.875 1.875c1.062 2.258 1.062 2.258 3.125 4.125a70 70 0 0 1 1.625 4.625c.26.817.52 1.635.79 2.477L465 772l-2 1-1.207-2.266-1.606-2.984-1.582-2.953c-1.499-2.752-1.499-2.752-3.21-4.902-1.845-2.506-2.605-5.058-3.551-7.993-.747-2-.747-2-2.438-3.46C448 747 448 747 448 744l-1.691-.605c-3.213-1.94-5.08-4.719-7.247-7.707-3.106-4.24-6.247-8.041-10.062-11.688l-1.667-1.632c-8.915-8.707-17.99-16.432-28.333-23.368q-2.804-1.913-5.599-3.84a984 984 0 0 0-5.05-3.445L386 690z"/><path fill="#e89c4d" d="m705 588 5 1v2l3.367-.07c8.854-.129 16.992.109 25.551 2.636 2.576.537 4.954.492 7.582.434 3.415-.075 6.215.108 9.5 1 9.52 1.33 16.951 1.94 25-4h2c-.971 2.817-1.924 3.946-4.375 5.688-4.274 1.547-8.119 1.853-12.633 2.128-3.695.227-7.324.69-10.992 1.184l-1-2h-3v2l-5-1v-2l-2.611-.228q-4.857-.433-9.712-.889a751 751 0 0 0-4.18-.375c-7.815-.681-15.234-1.362-22.497-4.508z"/><path fill="#feb008" d="m440 352 11 1-1 2c-1.715.563-1.715.563-3.937 1l-2.477.516c-1.656.31-3.318.594-4.984.843-11.833 1.915-21.538 7.843-29.602 16.641-3.406 4.86-3.907 9.171-4 15l.625 3.438L406 395c-1.437 1.875-1.437 1.875-3 3-2.488-7.463-1.83-15.22 1.438-22.312 7.79-13.83 21.006-18.604 35.562-22.688z"/><path fill="#2da1e3" d="m593 775 1 2 3 1-1.712.443a5762 5762 0 0 0-7.663 1.995l-2.695.697-2.578.674-2.38.618c-2.024.524-2.024.524-3.972 1.573-2.135.252-4.27.5-6.41.719-2.583.28-5.147.627-7.719 1C525.186 791.01 525.186 791.01 509 788v-1q2.656-.04 5.313-.062l2.988-.036C520 787 520 787 523 788v-2h21v-2h22v-2l1.94-.427q4.375-.969 8.747-1.948l3.053-.672 2.96-.664 2.713-.603c2.637-.7 5.077-1.622 7.587-2.686"/><path fill="#fe8a00" d="M401 387h1l1 8h3l1.25 3.688c1.367 3.695 3.183 6.303 5.75 9.312v2h2l1-2 2 5h-2c.03 2.416.03 2.416 1 5 2.967 1.86 2.967 1.86 6 3v2c-7.592-.828-12.783-7.329-17.437-12.937-1.808-3.544-2.91-7.06-3.95-10.891-.546-2.194-.546-2.194-1.613-4.172.168-2.696.612-5.324 1-8"/><path fill="#feb530" d="M528 417c11.637.385 22.65 2.545 34 5l-3 1 1 4h4v2l-2.12-.427q-4.846-.976-9.692-1.948l-3.334-.672A961 961 0 0 0 528 422v-1h9l-8-1z"/><path fill="#91ea68" d="M240 597c1.902.7 1.902.7 4 2 .941 2.207.941 2.207 1.563 4.813.776 2.957 1.37 5.08 3 7.687 1.916 3.334 2.324 6.617 2.91 10.39L252 624l2 1a143 143 0 0 1 3.438 6.75c2.023 4.195 4.102 8.289 6.562 12.25 4 6.676 4 6.676 4 9h2v5c-4.348-3.73-6.84-8.456-9.625-13.375l-1.584-2.787C240 608.191 240 608.191 240 597"/><path fill="#febc3f" d="M559 423c6.323.164 11.977 1.437 17.938 3.438l1.97.658c3.017 1.049 5.417 2.12 8.092 3.904.188 2.625.188 2.625 0 5l5 1-2 2-3.402-1.426c-7.462-3.11-14.867-6.184-22.598-8.574v-2h-4z"/><path fill="#ac4cee" d="m568 285 22 7v2l2 2 1 3c-2.606.93-3.642 1.15-6.25.063L585 298l-1 2v-3l-2.168-.371c-2.883-.64-5.418-1.565-8.144-2.692l-2.676-1.097L569 292z"/><path fill="#9035e9" d="M649 330c10.024 4.293 17.347 15.865 23.755 24.358a285 285 0 0 0 3.296 4.244c6.406 8.355 11.347 17.613 16.454 26.793 2.048 3.569 4.256 7.034 6.487 10.491C700 398 700 398 699 401l-3-1a845 845 0 0 1-1.887-6.04c-6.198-16.484-17.996-32.684-29.468-45.894C663 346 663 346 662 343l-3-1c-1.719-1.777-1.719-1.777-3.5-3.937-2.129-2.573-3.684-4.186-6.5-6.063z"/><path fill="#febc03" d="m502.973 196.762 2.202-.025q2.285-.02 4.57-.032 2.32-.017 4.64-.062a469 469 0 0 1 6.775-.069l2.068-.053c5.407.024 8.452 1.44 12.772 4.479l1 3-6-3h-3.5c-3.5 0-3.5 0-5.5-1-4.472-.328-8.88-.044-13.312.563-8.493.975-17.184-.017-25.688-.563 5.774-3.61 13.374-3.167 19.973-3.238"/><path fill="#acfc73" d="m369 592 1.529.734q3.42 1.638 6.846 3.266l2.406 1.156 2.305 1.094 2.126 1.016c1.774.86 1.774.86 3.788.734v2l2.563.754c3.744 1.357 7.046 3.129 10.437 5.183l1.966 1.188C417.23 617.947 430.18 629.217 441 642c-3 0-3 0-4.437-1.398L435 638.625c-14.456-17.095-34.378-29.447-54.625-38.5l-3.332-1.508Q373.025 596.8 369 595z"/><path fill="#72e652" d="M315 575c3.244.592 6.258 1.358 9.352 2.496l2.537.928 2.736 1.014 2.896 1.066q3.105 1.144 6.21 2.293c3.334 1.227 6.676 2.435 10.019 3.64C365.696 592.58 382.322 599.044 398 608c-3 1-3 1-5.214.199l-2.583-1.297-2.91-1.431-3.043-1.534c-16.635-8.317-33.993-14.462-51.481-20.707q-4.118-1.474-8.23-2.964l-2.56-.906c-5.865-2.133-5.865-2.133-6.979-4.36"/><path fill="#7cd1e7" d="M718 613c9.049-.291 17.98.186 27 .875l3.29.238c7.604.614 14.081 1.258 19.71 6.887 2.601 5.084 1.894 9.564 1 15l-2-1c-.379-2.145-.379-2.145-.562-4.812-.23-3.183-.57-6.114-1.438-9.188h-3v-2c-14.663-1.7-29.327-3.389-44-5z"/><path fill="#fe9402" d="M438 363v2q-3.435 1.506-6.875 3l-1.973.867C424.227 371 424.227 371 422 371l-.809 1.785c-1.206 2.243-2.516 3.804-4.253 5.652-2.511 2.896-3.755 4.633-3.938 8.563l-.148 2.285c-.226 5.742.491 9.623 3.148 14.715l-2 1-.812-2.937L412 399l-3-1q-.04-3.437-.062-6.875l-.036-3.867C409 384 409 384 410 382h2l.5-2.562c2.055-4.71 5.288-7.553 9.5-10.438 1.33-.348 2.662-.684 4-1l1-2c1.996-.852 1.996-.852 4.438-1.625.803-.26 1.606-.52 2.433-.79C436 363 436 363 438 363"/><path fill="#b66dfa" d="M712 397h21l1 3-1.941-.035c-5.138-.054-10.007.068-15.059 1.035l-1 1h52v1h-62l6-3z"/><path fill="#91ee53" d="M242 522c5.75 3.5 5.75 3.5 6.96 5.926 1.24 2.475 2.676 3.737 4.79 5.511l2.16 1.829L258 537l1.684 1.422a169 169 0 0 0 6.878 5.515C269 546 269 546 271.063 548.75c3.893 4.93 9.688 7.951 14.938 11.25l-2 1c-7.937-5.025-15.589-10.217-22.75-16.312l-1.768-1.488c-3.23-2.81-5.375-5.503-7.482-9.2-1.745-1.744-1.745-1.744-3.625-3.187-3.28-2.623-3.28-2.623-4.375-4.813h-4z"/><path fill="#f89101" d="M255 365h1c-.509 5.09-1.168 10.088-2.062 15.125-.764 4.394-1.037 8.43-.938 12.875l-1 1a77 77 0 0 0-.062 4.7l.023 2.915.078 6.086c.04 4.889.009 9.493-1.039 14.299h-1c-2.932-18.474-1.184-35.841 3-54h2z"/><path fill="#73de71" d="M465 674c3.921 2.614 4.145 5.339 5.125 9.688l.512 2.107c1.946 8.206 2.545 16.101 2.55 24.518l.038 3.033.005 2.892.013 2.627C473 721 473 721 471 723h-4v-2l2-1c.407-2.322.744-4.657 1-7h1v-5h-1a4790 4790 0 0 0-1.375-11.375l-.383-3.215c-.802-6.542-1.837-12.97-3.242-19.41"/><path fill="#78d7ec" d="M677 617c1 3 1 3-.266 5.766a298 298 0 0 1-1.984 3.484c-4.366 7.81-8.17 15.845-11.892 23.98l-1.342 2.875-1.18 2.568c-1.468 2.558-3.172 4.338-5.336 6.327 0-2.621.313-4.51 1-7h2l.75-2.437c4.229-12.052 4.229-12.052 7.25-13.563a285 285 0 0 0 2-6 228 228 0 0 1 3.5-7.25l.934-1.89c1.324-2.639 2.465-4.759 4.566-6.86"/><path fill="#88fa89" d="M352 664c4.258 1.448 7.294 3.599 10.813 6.375 4.583 3.518 8.913 6.292 14.187 8.625v2l2.047.703c3.708 1.628 6.87 3.766 10.203 6.047.659.445 1.318.89 1.996 1.35q1.97 1.33 3.936 2.667a909 909 0 0 0 7.255 4.858L406 699l-3 1c-2.21-1.133-2.21-1.133-4.805-2.91l-2.928-1.981-3.142-2.172-6.516-4.43-3.334-2.28a798 798 0 0 0-9.322-6.235l-2.852-1.882q-2.66-1.755-5.323-3.503c-4.492-2.978-8.765-6.003-12.778-9.607z"/><path fill="#fd5000" d="M512 570c6.491.423 11.335 2.911 17 6l-1 7-2.16-1.207c-5.196-2.874-10.326-5.587-15.84-7.793v-2h2z"/><path fill="#fda300" d="m440 480 2.586.184c9.97.668 19.937 1.095 29.923 1.423 7.188.251 14.33.731 21.491 1.393v2h6v1c-5.946 1.383-11.035.533-17.012-.527-3.142-.577-3.142-.577-6.988-.473a420 420 0 0 1-6.742-.621l-1.958-.195-4.09-.41q-3.106-.314-6.214-.62l-3.988-.4-3.636-.365A157 157 0 0 1 440 481z"/><path fill="#fa4f00" d="M548 612c2.583 5.166 3.153 8.819 3.125 14.625l.012 2.371c-.007 3.838-.16 7.539-.707 11.34-.64 3.455-.64 3.455.191 5.898.379 1.766.379 1.766-.836 3.907l-1.722 2.109-1.715 2.14L545 656l-3-1c1.007-3.176 2.08-6.17 3.5-9.187 4.648-10.98 3.388-22.229 2.5-33.813"/><path fill="#24d77d" d="M367 749c3.617.362 6.511 1.134 9.71 2.793l2.123 1.088L381 754q2.034 1.02 4.07 2.035c8.125 4.063 8.125 4.063 10.068 5.044a179 179 0 0 0 5.292 2.48C403 765 403 765 404 768c-6.704-2.013-12.832-4.7-19.062-7.875l-2.565-1.277c-5.272-2.659-10.575-5.384-15.373-8.848z"/><path fill="#fdab09" d="M351 429h2c1.152 1.642 2.221 3.341 3.25 5.063 5.964 9.852 5.964 9.852 15.715 15.128 3.56 1.415 6.587 3.872 9.035 6.809v3l4 1-1 3-1-2-2.281-.879c-3.057-1.26-4.825-2.795-7.219-5.058-2.292-2.16-4.357-3.978-7.066-5.59C359.778 445.445 354.778 437.67 351 431z"/><path fill="#f17210" d="M542 724c-2.757 1.838-4.331 2.486-7.457 3.254-.866.215-1.731.43-2.623.65l-2.732.659-2.698.67c-6.526 1.6-12.805 2.913-19.553 3.017l-3.035.078c-3.355-.38-5.197-1.342-7.902-3.328l-1-2 2.313 1c6.574 1.783 13.068 1.396 19.687 0q2.123-.21 4.25-.375c3.346-.34 6.216-1.04 9.375-2.187 4.003-1.45 7.14-1.708 11.375-1.438"/><path fill="#a9ed71" d="M405 603c9.61 3.42 17.874 10.7 25.563 17.25l1.767 1.5c3.277 2.845 6.06 5.754 8.67 9.25-3.33-.574-4.771-1.493-7-4-5.808-6.055-12.746-10.804-19.664-15.504l-1.814-1.235a809 809 0 0 0-5.1-3.413L405 605z"/><path fill="#63f994" d="M405 700c12.148 5.62 21.385 16.071 30.495 25.56 1.464 1.542 1.464 1.542 3.505 2.44a769 769 0 0 1 3 5c1.956 2.7 3.971 5.354 6 8l-1 2-1.095-1.37c-10.472-13.053-20.939-24.996-34.362-35.067-2.737-2.062-4.62-3.68-6.543-6.563"/><path fill="#63e159" d="M245 582c2.288 2.288 2.69 3.711 3.629 6.777l.935 2.97.999 3.19c3.984 12.374 9.027 23.998 15.261 35.399C267 633 267 633 266 636a1760 1760 0 0 1-6.858-13.7q-1.107-2.229-2.225-4.452C245 594.114 245 594.114 245 582"/><path fill="#21cd6e" d="M323 704c2.993 1.402 5.595 3.034 8.25 5l2.14 1.563L335 712v2l1.745.821c2.279 1.191 4.26 2.528 6.337 4.042l2.326 1.69 2.404 1.76 4.708 3.425 2.28 1.675a149 149 0 0 0 4.334 3.014c1.67 1.122 3.276 2.34 4.866 3.573v3c-3.79-1.82-7.43-3.778-11-6l-1-3c-1.73-1.562-1.73-1.562-3.902-3.04l-2.437-1.746-2.599-1.839C336.027 716.302 329.047 711.264 323 705z"/><path fill="#dc9a52" d="M781 591h2c-.971 2.817-1.924 3.946-4.375 5.688-4.274 1.547-8.119 1.853-12.633 2.128-3.695.227-7.324.69-10.992 1.184l-1-2h-3v2l-5-1v-3q3.342-.292 6.688-.562l3.761-.317c3.138-.107 5.53.145 8.551.879 6.06.572 9.927-.919 15-4z"/><path fill="#e195f1" d="M560 229h2c1.393 10.688 1.111 21.434 1.063 32.188q-.009 2.888-.014 5.775-.017 7.018-.049 14.037h-1c-2.334-17.337-2.211-34.549-2-52"/><path fill="#63d1fe" d="M679 627c2.357 7.07-3.886 16.129-7 22.563l-1.006 2.13c-1.44 2.896-2.495 4.982-5.244 6.772L664 659v-4h2l.55-1.898.763-2.477.738-2.46C669 646 669 646 672 644c.36-1.661.69-3.329 1-5q1.481-2.51 3-5c.69-1.992 1.36-3.991 2-6z"/><path fill="#49e295" d="M455 742c3.696 1.451 4.999 3.145 6.91 6.578l1.56 2.77c.789 1.436.789 1.436 1.592 2.902l1.604 2.855c7.774 13.91 7.774 13.91 7.334 18.895-2.945-2.433-3.323-4.324-4-8l-2-1a222 222 0 0 1-2.88-5.723c-1.8-3.66-3.845-7.176-5.87-10.715C455 743.136 455 743.136 455 742"/><path fill="#fd9920" d="m677 550 3 2c-.875 4.75-.875 4.75-2 7l8 1c-2 3-2 3-5.375 3.813-5.167.267-5.167.267-7.625-1.813-1-2.312-1-2.312-1-5 1.875-2.687 1.875-2.687 4-5z"/><path fill="#17d17a" d="M365 736c1.938.313 1.938.313 4 1l1 3 2.129.32c3.254.77 5.84 2.02 8.808 3.555l3.028 1.555L387 747l3.316 1.508C393 750 393 750 394 753c-7.016-1.345-12.887-4.384-19-7.937l-2.285-1.307-2.152-1.283-1.934-1.149c-1.923-1.563-2.675-3.06-3.629-5.324"/><path fill="#63cae7" d="M514 759h-2v2c-2.531 1.012-5.038 2.013-7.625 2.875-2.938 1.391-3.885 2.22-5.375 5.125-.532 2.99-.812 5.97-1 9h-2c-1.356-5.423-.931-8.398 1.836-13.273 3.43-5.088 10.212-8.108 16.164-5.727"/><path fill="#8ef27e" d="M354 657q3.718 2.353 7.426 4.723c2.676 1.71 5.364 3.4 8.054 5.086l4.645 2.941 2.299 1.429 2.146 1.368 1.93 1.214C382 675 382 675 383 678l-5-1v-2h-3v-2l-2.062-.75c-5.603-2.384-10.286-5.353-14.938-9.25l-2.312-1.562L354 660z"/><path fill="#fe5100" d="m527 677 2 1q-3.277 1.465-6.562 2.914a278 278 0 0 0-6 2.774c-2.843 1.085-4.8 1.567-7.75 1.875-3.718.055-3.718.055-5.688 2.437-.373 3.108-.373 3.108-.414 6.758l-.059 2.01a981 981 0 0 0-.152 6.357l-.117 4.309q-.142 5.283-.258 10.566h-1q-.075-6.78-.11-13.562-.015-2.308-.04-4.615c-.025-2.21-.036-4.418-.045-6.628l-.032-2.09c0-1.703.105-3.406.227-5.105 2.212-2.212 3.21-2.486 6.176-3.219l2.51-.636 2.627-.645c6.43-1.554 6.43-1.554 12.667-3.719z"/><path fill="#fea403" d="m413 365 2 1c-1.145 1.02-1.145 1.02-2.312 2.063-2.937 3.21-4.192 5.875-5.688 9.937l-1.187 3.063c-1.135 4.103-1.18 7.501-.125 11.625L406 395c-1.437 1.813-1.437 1.813-3 3-2.546-7.637-1.783-15.318 1.688-22.5 2.322-4.17 4.63-7.469 8.312-10.5"/><path fill="#d890de" d="M567 201c7.474-.374 13.821.96 21 3l1-2 1 2c2.489.852 5.006 1.471 7.555 2.121 2.548.916 3.722 1.831 5.445 3.879-5.175.33-8.858-.498-13.71-2.266-3.412-1.094-6.73-1.41-10.29-1.734v-3l-12-1z"/><path fill="#20d78d" d="M448 742c8 9.714 8 9.714 8 15h2l.875 1.875c1.062 2.258 1.062 2.258 3.125 4.125a70 70 0 0 1 1.625 4.625c.26.817.52 1.635.79 2.477L465 772l-2 1-1.207-2.266-1.606-2.984-1.582-2.953c-1.499-2.752-1.499-2.752-3.21-4.902-1.845-2.506-2.605-5.058-3.551-7.993-.954-2.149-2.157-3.292-3.844-4.902-.75-2.125-.75-2.125-1-4z"/><path fill="#27d56a" d="M437 641c4.96 3.37 7.508 7.508 10.5 12.563l1.46 2.438c4.955 8.38 9.48 16.115 10.04 25.999-2.054-3.082-3.201-5.914-4.5-9.375-1.466-3.89-2.941-7.771-4.5-11.625h-2l-.629-1.652c-2.273-5.565-5.118-9.9-8.98-14.5C437 643 437 643 437 641"/><path fill="#2dd192" d="M474 774c2.392 2.392 2.346 3.151 2.438 6.438-.13 4.212-.13 4.212-2.313 6.687-4.473 1.252-8.63 1.03-13.125-.125l-4-3h15c.834-3.338 1.46-6.607 2-10"/><path fill="#a95de8" d="M762 336c2.744 2.42 4.125 4.935 5.7 8.219l1.474 3.074 1.514 3.207 1.548 3.207C776 361.617 776 361.617 776 365h-2a2696 2696 0 0 1-6-12.25l-1.734-3.512-1.641-3.379-1.523-3.11C762 340 762 340 762 336"/><path fill="#a3e55d" d="M231 528h1l.438 3.438c.174 3.37.174 3.37 1.562 4.562.086 1.343.107 2.69.098 4.035l-.01 2.451-.025 2.577-.014 2.587q-.02 3.175-.049 6.35h-1l-1 6h-1c-1.2-10.696-1.673-21.334 0-32"/><path fill="#fda402" d="M400 469c5.825.594 11.204 1.712 16.813 3.375l2.271.633c3.789 1.11 6.286 2.054 8.916 4.992-4.91 1.637-9.205-.69-14-2.25l-3.062-.95-2.938-.94-2.687-.861c-2.37-1.023-3.647-2.057-5.313-3.999"/><path fill="#61c8ea" d="M758 616c4.41.504 6.86 1.86 10 5 2.601 5.084 1.894 9.564 1 15l-2-1c-.379-2.145-.379-2.145-.562-4.812-.23-3.183-.57-6.114-1.438-9.188h-3v-2l-5-1z"/><path fill="#a45bd8" d="M782 382c3.264 3.264 3.212 6.89 3.375 11.375-.03 3.792-.219 6.198-2.625 9.188-4.071 3.608-6.286 4.74-11.75 4.437l1.625-.687c3.632-2.008 7.49-4.541 9.375-8.313.072-2.718.093-5.409.063-8.125l-.014-2.285q-.02-2.795-.049-5.59"/><path fill="#fe9500" d="m492.563 203.813 2.378-.043C497 204 497 204 499 206c-4.844 2.547-9.492 2.228-14.812 2.125l-2.678-.027c-2.17-.024-4.34-.06-6.51-.098l2-3c2.008-.064 4.021-.12 6.027-.008 3.253.013 6.186-1.152 9.536-1.18"/><path fill="#f6970a" d="M495 197q7.07-.149 14.142-.22 2.401-.03 4.804-.082a517 517 0 0 1 6.933-.089l2.144-.062c5.515-.003 8.582 1.34 12.977 4.453l1 3-1.562-.875c-3.062-1.413-6.187-2.25-9.438-3.125v-2h-31z"/><path fill="#55ea8e" d="M436 718c7.869 4.317 13.026 11.695 18 19l-2 2-1.038-1.313a3777 3777 0 0 0-4.712-5.937l-1.633-2.066c-2.245-2.82-4.44-5.508-7.008-8.043C436 720 436 720 436 718"/><path fill="#faae47" d="M697 475h1c1.892 9.161 2.276 17.976 2.188 27.313l-.002 3.994c-.028 6.013-.238 11.743-1.186 17.693h-1q-.29-2.468-.562-4.937l-.317-2.778L697 514l1-1c.1-1.7.13-3.406.133-5.11l.006-3.21-.014-3.43-.006-3.443c-.04-7.647-.272-15.202-1.119-22.807"/><path fill="#d688f4" d="M665 237c6.165.335 10.043 3.378 14.875 6.875l2.375 1.645c4.28 3.05 4.28 3.05 5.75 4.48v3l-3-2.012-4-2.675-2.073-1.387c-3.586-2.392-7.186-4.74-10.865-6.988-1.01-.64-2.02-1.28-3.062-1.938z"/><path fill="#b658f5" d="m568 285 10 3-1 5 1 2-9-3z"/><path fill="#6fcae7" d="m607 717 2 1c-4.621 6.22-10.057 10.657-17 14-2.437-.25-2.437-.25-4-1 2.79-2.367 5.533-4.344 8.75-6.062 3.503-1.61 3.503-1.61 4.25-4.938 1.938-.562 1.938-.562 4-1z"/><path fill="#76f088" d="M392 683c4.421.537 6.976 2.144 10.5 4.813l2.781 2.082L408 692l2.844 2.137L413 696v2c-4.474-2.16-8.574-4.82-12.75-7.5l-2.402-1.512c-.75-.48-1.498-.961-2.27-1.457l-2.08-1.326L392 685z"/><path fill="#32a3ec" d="m690 730 2 2c-5.577 4.153-11.202 8.223-17 12.063l-2.687 1.785C670 747 670 747 667 746v-2l7-1v-2c3-2 3-2 6-2v-2h3v-2h3l1-3z"/><path fill="#aff65f" d="M242 522c5.75 3.5 5.75 3.5 6.96 5.926 1.24 2.475 2.676 3.737 4.79 5.511l2.14 1.813L258 537l1.86 1.563A695 695 0 0 0 264 542c-3.639 0-4.088-.663-6.687-3.062l-2.11-1.922L253 535q-3.211-2.766-6.434-5.52C245 528 245 528 244 526h-4z"/><path fill="#eda43a" d="M802 482h1c.206 25.764.206 25.764-1 38h-1l-1-21h2z"/><path fill="#fea713" d="m461.422 359.121 3.105.147 3.223.17 3.27.158q3.99.195 7.98.404l-1 2c-3.77.058-7.541.094-11.312.125-1.072.017-2.144.034-3.249.05l-3.115.02-2.872.032C455 362 455 362 452 360c3.253-.994 6.035-1.048 9.422-.879"/><path fill="#fb831c" d="M784 565h2c-2.727 15.08-2.727 15.08-7 20l-1.812 2.375c-3.075 2.284-5.463 1.912-9.188 1.625v-1l3.25-.687c4.35-1.523 5.252-2.525 7.75-6.313 1.117-2.718 1.947-5.488 2.75-8.312l.668-2.245A612 612 0 0 0 784 565"/><path fill="#fb8c12" d="M667 541h2c2.218 4.02 2.209 6.617 1 11h4l-1 9-2-1a121 121 0 0 1-2.125-7.875c-.182-.733-.364-1.467-.55-2.223C667.59 546.87 667 544.131 667 541"/><path fill="#12d183" d="M401 756c5.476 1.034 10.047 2.342 15 5h2v3c-6.23-.505-11.455-3.326-17-6z"/><path fill="#f69735" d="M728 592q2.126.214 4.25.438l2.39.246c2.36.316 2.36.316 4.305.855 3.5.785 7.028.42 10.594.3C752 594 752 594 754 596q-4.25.08-8.5.125l-2.398.05c-5.382.045-9.932-.67-15.102-2.175z"/><path fill="#efa235" d="M798 527c2 2 2 2 2.195 5.477a289 289 0 0 1-.07 4.148l-.027 2.14A625 625 0 0 1 800 544h-2v5h-1c-1.304-7.696-.43-14.358 1-22"/><path fill="#25d073" d="M461 692c3.273 3.273 4.117 7.53 5 12-.036 2.826-.433 5.214-1 8l-4-2 .563-2.812c.754-5.096.035-10.104-.563-15.188"/><path fill="#5ce665" d="M352 640h3v2l1.652.297c5.866 1.163 10.98 3.088 16.348 5.703v1c-7.855-.308-14.04-3.53-21-7z"/><path fill="#fe4500" d="M528 423c8.434-.456 15.86.826 24 3v1c-8.155-.447-16.043-1.112-24-3z"/><path fill="#20abfc" d="M530 763v1l-3.945.586-5.18.789-2.594.383c-4.613.71-8.891 1.587-13.281 3.242.625-1.922.625-1.922 2-4 7.317-2.255 15.393-2.31 23-2"/><path fill="#30a0ea" d="m638 760 4 2a3164 3164 0 0 1-8.875 3.5l-2.55 1.012-2.442.957-2.254.888C624 769 624 769 622 769v-2l3.246-1.277 4.192-1.66 2.142-.842c3.467-1.183 3.467-1.183 6.42-3.221"/><path fill="#fd6500" d="m543 654 2 3a154 154 0 0 1-2.687 3.5l-1.512 1.969C539 664 539 664 536.293 664.219L534 664q1.398-1.944 2.813-3.875l1.582-2.18C540 656 540 656 543 654"/><path fill="#fe9500" d="m414 219 3 2c-12.845 6-12.845 6-20 6l1-3 4 1v-2l3.188-.875c3.692-.993 3.692-.993 6.562-2.375z"/><path fill="#2ea5f0" d="m593 775 1 2 3 1c-7.179 2.04-13.526 3.374-21 3 3.449-1.895 6.988-2.996 10.75-4.125l3.547-1.07z"/><path fill="#9aef7b" d="M443 635c4.317 2.215 6.56 4.722 9.313 8.688l2.113 3.011L456 649l-1 2a84.4 84.4 0 0 1-12-14z"/><path fill="#5fc4f1" d="m535 755 1 5-10 1 4-4-4-2c3.378-.845 5.675-1.108 9 0"/><path fill="#5ed976" d="M457 713c3.032 1.01 3.999 1.635 6 4l1 3h2v3l4 2-2 1c-5.11-2.13-8.162-6.406-11-11z"/><path fill="#67f08f" d="M419 703c5.836.774 9.067 3.802 13 8 1.5 2.938 1.5 2.938 2 5-3.846-1.567-6.124-4.056-9-7a197 197 0 0 0-3.312-2.75L419 704z"/><path fill="#9a4ef6" d="M712 397h21l1 3q-4.375-.172-8.75-.375c-.825-.03-1.65-.062-2.5-.094l-2.422-.117-2.222-.095C716 399 716 399 712 397"/><path fill="#17bd7c" d="M441 781c5.778-.236 10.513.132 16 2v2l2 1-2.887-.437-3.8-.563-3.762-.562c-2.91-.359-5.628-.527-8.551-.438z"/><path fill="#fea601" d="m364 330 1 2-2-1zm-5 5v3l-2 1zm-4 5 1 2c-1.978 4.065-4.737 6.914-8 10 1.557-4.671 4.084-8.087 7-12"/><path fill="#fec944" d="M593 438c16.027 6.055 16.027 6.055 19 12-4.493-1.658-8.612-3.85-12.812-6.125l-2.1-1.129A2531 2531 0 0 1 592 440z"/><path fill="#5ccffe" d="M717 620c1.77-.081 3.541-.14 5.313-.187l2.988-.106c2.699.293 2.699.293 4.554 1.805L731 623c-3.2 1.067-4.885.948-8.187.563l-2.731-.31L718 623z"/><path fill="#fdbe17" d="m440 352 11 1c-1 2-1 2-2.785 2.598-5.062 1.033-10.078 1.842-15.215 2.402l1-2c2.322-.407 4.657-.744 7-1z"/><path fill="#fd4700" d="M391 314v3c-1.469 1.36-1.469 1.36-3.5 2.75-4.427 3.147-8.464 6.621-12.5 10.25l-2-1c5.39-5.887 11.464-10.45 18-15"/><path fill="#dd8ff5" d="M646 226c3.763.61 6.835 1.688 10.25 3.375l2.64 1.273C661 232 661 232 662 235l-5-1v-2l-1.562-.312c-3.298-.93-6.304-2.302-9.438-3.688z"/><path fill="#e59af4" d="M604 210c5.273.445 10.018 1.084 15 3v2l2 1c-5.743-.736-12.788-1.788-17-6"/><path fill="#52c7e1" d="M499 763c1.125 3.75 1.125 3.75 0 6-.225 1.537-.408 3.08-.562 4.625l-.254 2.477L498 778h-2c-1.41-5.637-.74-8.442 2.09-13.496z"/><path fill="#f17112" d="M616 665c0 3.975-1.469 5.39-3.812 8.563l-2.145 2.94C608 679 608 679 605 681v-3l2-1c.652-2.025.652-2.025 1-4l4-1v-3h2v-3z"/><path fill="#42e472" d="M410 670c5.09 1.59 8.875 4.745 13 8l-1 2c-9.779-4.818-9.779-4.818-12-10"/><path fill="#fd4800" d="m371 331 2 1-1.828 1.977c-4.104 4.487-8.019 8.814-11.172 14.023l-2-1c8.262-11.706 8.262-11.706 13-16"/><path fill="#1dcb7a" d="M389 761c5.335.46 9.375 1.067 14 4l1 3c-5.233-1.64-10.152-3.39-15-6z"/><path fill="#80e466" d="M261 644c4.026 1.342 4.883 3.423 7 7v2h2v5c-3.848-3.42-6.606-7.468-9-12z"/><path fill="#7feafe" d="m716 613 20 2v1h-19z"/><path fill="#85d5e7" d="M696 611a175 175 0 0 1 22 1c-3.314 2.21-4.345 2.225-8.187 2.125l-2.731-.055L705 614v-2h-9z"/><path fill="#fe9328" d="M688 529h1c.592 6.665-1.517 11.87-4 18l-3-1 1-3 2-1a95 95 0 0 0 1.625-6.562c.26-1.198.52-2.396.79-3.63z"/><path fill="#69e75f" d="M319 630c2.648 2.578 4.944 4.916 7 8h-2v2h-4z"/><path fill="#f07813" d="M636 592h1c.115 7.41-.088 14.642-1 22h-1c-1.853-7.645-.697-14.468 1-22"/><path fill="#fcce5e" d="m694 468 1 2h2l1 20h-1a3523 3523 0 0 1-1.5-8.75l-.434-2.5-.41-2.422-.38-2.222C694 472 694 472 694 468"/><path fill="#1fdd82" d="M376 744c2.005.65 4.003 1.323 6 2l2.813.918 3 1.02 2.894.964L393 750l1 3c-6.659-1.678-12.523-3.747-18-8z"/><path fill="#fdc650" d="M713 451c2.998 1.499 3.308 3.803 4.402 6.855.772 2.768.812 5.291.598 8.145l-1-3h-2c-1.591-4.177-2.213-7.532-2-12"/><path fill="#a459e5" d="M776 365c1.907 2.861 3.004 5.353 4.188 8.563l1.105 2.94C782 379 782 379 781 381l-2-1v-4l-2-1c-.414-2.285-.414-2.285-.625-5.062l-.227-2.786z"/><path fill="#ee7315" d="m559 714 4 2a1193 1193 0 0 1-6.312 3l-3.551 1.688C550 722 550 722 547 722v-2l7-1v-2l5-1z"/><path fill="#fbc35c" d="M707 433h1v5l3 1c.73 2.066.73 2.066 1.188 4.563l.48 2.503L713 448l-2-1v-2h-2c-1.998-4.12-2.178-7.452-2-12"/><path fill="#53c1ed" d="M767 636c1 3 1 3 .11 5.445l-1.36 2.68-1.328 2.695C763 649 763 649 760 650c1.31-4.234 2.944-8.074 5-12h2z"/><path fill="#40dc63" d="M423 627c4.091 2.219 7.072 4.86 10.313 8.188l2.675 2.73L438 640l-2 2-1.828-2.082-2.422-2.73-2.39-2.708c-2.23-2.486-2.23-2.486-4.657-4.18L423 629z"/><path fill="#f9ab40" d="M697 524h1c-.43 6.251-1.014 12.042-3 18-2-3-2-3-2-5h2l-1-3c.438-2.687.438-2.687 1-5h2z"/><path fill="#fe9200" d="M395 229a595 595 0 0 1-5.812 3.063l-3.27 1.722C383 235 383 235 380 234v-2h6l1-2c3.09-2.024 4.535-2.024 8-1"/><path fill="#0fcc84" d="M423 763c1.813.813 1.813.813 4 2 1.661.68 3.327 1.35 5 2v3l-1.687-.937c-2.298-1.178-2.298-1.178-4.938-1.5C423 767 423 767 421 764z"/><path fill="#35e892" d="M448 742c2.908 3.53 5.719 7.029 8 11-.25 2.375-.25 2.375-1 4v-2h-2l-1.375-3.437c-1.196-3.61-1.196-3.61-3.625-4.563-.687-2-.687-2-1-4z"/><path fill="#2adf7b" d="M353 729q2.19.676 4.375 1.375l2.46.773C362 732 362 732 364 734v3c-3.777-1.813-7.373-3.907-11-6z"/><path fill="#9afb7e" d="M352 664c4.152 1.442 7.3 3.501 10.813 6.125l2.957 2.195L368 674l-3 1a81 81 0 0 1-6.687-4.875l-1.838-1.434A166 166 0 0 1 352 665z"/><path fill="#f78703" d="M289 508c4.276.475 6.166 2.953 9 6l2.313 2.313L302 518l-1 2a2676 2676 0 0 1-6-5.437l-1.734-1.565A253 253 0 0 1 289 509z"/><path fill="#af55e0" d="M600 304c4.729.464 8.181 1.08 12 4l1 3a605 605 0 0 1-5-2l-1.855-.73c-5.032-2.044-5.032-2.044-6.145-4.27"/><path fill="#2fd575" d="M356 742c3.6-.424 5.06.033 8.313 1.813L367 746v3c-4.108-1.45-7.469-3.454-11-6z"/><path fill="#9349f0" d="M776 390h2c1 3 1 3 .375 5-1.781 2.591-3.537 3.685-6.375 5l-3-1 1-2 2.5-.812L775 395c.894-2.548.894-2.548 1-5"/><path fill="#e9a2f4" d="M589 206c5.673-.293 8.99-.006 14 3-5.17 1.662-9.003-.296-14-2z"/><path fill="#16c37a" d="m417 770 1 2c3.03.658 3.03.658 6 1v2l3 1c-2 1-2 1-4.602.223l-3.023-1.16-3.04-1.153L414 773l3-1z"/><path fill="#2f9fe8" d="M668 748a546 546 0 0 1-4.875 3.063l-2.742 1.722L658 754l-2-1c3.905-4.183 6.277-6.657 12-5"/><path fill="#38d66e" d="m343 731 1.688 1.313c2.31 1.757 2.31 1.757 5 3.187C352 737 352 737 353 740c-4.671-1.557-8.087-4.084-12-7z"/><path fill="#f37111" d="m591 693 3 1a819 819 0 0 1-4.375 4l-2.46 2.25C585 702 585 702 583 702c1.592-4.3 4.355-6.397 8-9"/><path fill="#7ac7dc" d="M758 616c4.401.503 6.712 2.088 10 5l-1 2-5-2v-2l-5-1z"/><path fill="#e197f5" d="M622 216c4.318.508 8.033 1.197 12 3v2l2 1c-5.07-.654-9.42-2.855-14-5z"/><path fill="#29d176" d="M367 749c4.355.506 7.442 1.384 11 4v2c-4.194-.671-7.403-2.856-11-5z"/><path fill="#e27b1c" d="M495 727c5.875 1.875 5.875 1.875 7 3 1.849.234 3.705.413 5.563.563l3.066.253L513 731v1c-1.895.082-3.791.14-5.687.188l-3.2.105c-3.504-.33-5.31-1.207-8.113-3.293z"/><path fill="#8ad8e2" d="M677 617c1 3 1 3 .328 4.79l-1.078 1.835-1.047 1.852C674 627 674 627 671 628c1.45-4.11 3.511-7.433 6-11"/><path fill="#5ee258" d="M382 601c5.953 1.393 10.757 3.885 16 7-3 1-3 1-5.883-.145l-3.242-1.668-3.258-1.644C383 603 383 603 382 601"/><path fill="#f09b34" d="M792 566c1.188 3.43.802 5.378-.437 8.75l-.872 2.422L790 579l-2-1 2-10h2z"/><path fill="#f88303" d="m355 547 10 2 1 3-12-3z"/><path fill="#fdce4d" d="M637 471c3.78 1.26 4.773 2.935 7.188 6.063l2.167 2.785L648 482l-1 2a1196 1196 0 0 1-5-5.375l-1.445-1.54C637 473.228 637 473.228 637 471"/><path fill="#ff9d00" d="m387 315 2 1-12 10-2-1a91 91 0 0 1 4-4h2l1-3c2.438-1.75 2.438-1.75 5-3"/><path fill="#63d1fe" d="M733 621q2.687-.079 5.375-.125l3.023-.07C744 621 744 621 746 623c-1.413.25-2.83.475-4.25.688l-2.39.386c-2.988-.094-4.17-1.12-6.36-3.074"/><path fill="#fea800" d="M480 484q3.313-.04 6.625-.062l3.727-.036c3.325.09 6.388.461 9.648 1.098v1c-6.864 1.596-13.146.247-20-1z"/><path fill="#78e467" d="M270 658c1.86.246 1.86.246 4 1 1.266 1.848 1.266 1.848 2.25 4.063l1.016 2.222L278 667h-3c-1.387-1.46-1.387-1.46-2.687-3.375l-1.325-1.898C270 660 270 660 270 658"/><path fill="#63e765" d="M339 635q2.19.425 4.375.875l2.46.492C348 637 348 637 350 639c-3.41 1.136-4.003.867-7.187-.437l-2.168-.872L339 637z"/><path fill="#f78703" d="M308 524c3.785.512 5.441 1.208 8 4l3 1-1 3q-2.504-1.714-5-3.437l-2.812-1.934L308 525z"/><path fill="#ad65f7" d="m711 398 13 1v1l-3.187.438c-2.968.437-5.88.94-8.813 1.562z"/><path fill="#faaf40" d="M692 542h2c-.551 3.95-1.39 7.35-3 11-1.187-1.562-1.187-1.562-2-4 1.375-3.75 1.375-3.75 3-7"/><path fill="#fa820a" d="M667 541h2c2.395 4.341 2.03 7.237 1 12-2.39-3.825-2.56-7.597-3-12"/><path fill="#f38201" d="M257 453c2.097 3.146 2.52 5.015 3.125 8.688l.508 3.011L261 467c-2-2-2-2-2.5-4.562L258 460l-2-1z"/><path fill="#ffa40c" d="m443 360 6 1-1 2c-2.066.414-2.066.414-4.562.625l-2.504.227L439 364v-2h4z"/><path fill="#49b7eb" d="M757 654h2c-1.258 4.508-2.904 7.491-6 11v-4h2l.438-2.937C756 655 756 655 757 654"/><path fill="#eb953a" d="M783 591c-1.37 3.161-1.99 3.993-5 6-3.187.125-3.187.125-6 0l3-2 3.063-2.125C781 591 781 591 783 591"/><path fill="#ed9835" d="M787 579h2c-.607 4.128-2.038 7.332-4 11-.955-2.17-1.144-3.563-.398-5.824.757-1.744 1.574-3.462 2.398-5.176"/><path fill="#fea100" d="M545 493c3.856-.22 6.492.396 10 2v1h-11z"/><path fill="#fd9e00" d="M531 490h10v2l3 1a416 416 0 0 1-4.812-.375c-.894-.07-1.787-.14-2.708-.21C534 492 534 492 531 490"/><path fill="#fe9900" d="m426 215 4 1c-1.062 1.5-1.062 1.5-3 3-3.687.188-3.687.188-7 0v-2l6-1z"/><path fill="#3eec7a" d="M339 718q2.194 1.397 4.375 2.813l2.46 1.582C348 724 348 724 350 727c-3.331-.597-5.213-1.72-7.75-3.937l-1.86-1.59C339 720 339 720 339 718"/><path fill="#c0ee64" d="M299 558c3.912 1.156 6.875 2.355 10 5-3 1-3 1-6.125-.25C300 561 300 561 299 558"/><path fill="#fc8c02" d="M401 387h1l2 17c-2.792-2.792-3.192-5.148-4-9 .12-2.747.523-5.28 1-8"/><path fill="#b85bda" d="M581 296h8l2 4-6-2-1 2v-3z"/><path fill="#fdb801" d="m392 221 2 1-2 1zm-5 1c2.75.25 2.75.25 5 1-2.967 1.648-5.656 2.443-9 3 1.688-2.062 1.688-2.062 4-4"/><path fill="#ff9300" d="m467 208-1 2c-2.066.414-2.066.414-4.562.625l-2.504.227L457 211v-2c3.215-1.607 6.436-1.057 10-1"/><path fill="#5ff192" d="M436 718c2.629 1.522 4.844 2.844 7 5l-1 3c-4.875-4.625-4.875-4.625-6-8"/><path fill="#fda502" d="m388 463 6 1 1 4h-2v-2l-6-1z"/><path fill="#fba101" d="M255 365h1a340 340 0 0 1-.375 4.313c-.07.8-.14 1.6-.21 2.425C255 374 255 374 253 377v-9h2z"/><path fill="#fe9e00" d="M452 208h2l1 3c-6.75 2.125-6.75 2.125-9 1v-2l5 1z"/><path fill="#e58eff" d="m573 207 2 1v3l-2.937.375L569 212l-1 2c.398-2.886.79-3.822 3.063-5.75z"/><path fill="#faa100" d="M472 200c-2.282 2.074-3.443 2.984-6.578 3.074l-2.672-.387-2.703-.363L458 202v-1a75.6 75.6 0 0 1 14-1"/><path fill="#fe5400" d="m536 716-1 3-9 1c3.585-3.585 5.087-4 10-4"/><path fill="#f07515" d="m625 644 2 1-3 9h-1c.875-7.75.875-7.75 2-10"/><path fill="#92e976" d="M450 642c3.08 2.773 4.688 5.063 6 9-3.438-1.146-4.174-1.957-6-5z"/><path fill="#81e5f1" d="m672 627 1 2c-.777 1.945-.777 1.945-1.937 4.125l-1.153 2.195L669 637c-.621-1.797-.621-1.797-1-4 1.938-3.25 1.938-3.25 4-6"/><path fill="#68d5fe" d="M706 619h7l1 2-8 1z"/><path fill="#f6a130" d="M680 560h6l-2 3c-3.625.688-3.625.688-7 1l3-1z"/><path fill="#f4c15a" d="M784 425c3.796.542 5.472 2.201 8 5-2.621 0-4.51-.313-7-1z"/><path fill="#fe9300" d="m346 253 2 1c-5.143 5.571-5.143 5.571-9 6l1-3h3v-2z"/><path fill="#fe5a00" d="m586 686 2 2c-1.375 1.5-1.375 1.5-3 3h-2l-1 2c0-3 0-3 2-5.187z"/><path fill="#84f486" d="M384 678c3.27.564 4.826 1.5 7 4l-4 1-1-3h-2z"/><path fill="#37a7ee" d="m702 720 4 1-7 5v-4z"/><path fill="#7dd2e4" d="m667 635 2 3c-.812 1.938-.812 1.938-2 4l-3 1v-4h2z"/><path fill="#b258e1" d="m592 300 8 1v3c-5.75-1.75-5.75-1.75-8-4"/><path fill="#bc62dd" d="M569 291c2.813-.25 2.813-.25 6 0 1.875 2 1.875 2 3 4l-9-3z"/><path fill="#fe9500" d="m441 213-1 2c-3.062.625-3.062.625-6 1l-1-2c4.625-2.125 4.625-2.125 8-1"/><path fill="#fbae0a" d="M528 199c3.375.25 3.375.25 7 1 1.438 2.063 1.438 2.063 2 4l-1.687-.875c-2.398-1.166-4.829-2.159-7.313-3.125z"/><path fill="#81abc5" d="m608 712 4 1-4 1z"/><path fill="#f46502" d="m528 664 4 1-4 1z"/><path fill="#94a8a4" d="m765 616 3 1-2 2z"/><path fill="#3194bf" d="M523 790h5v1h-5z"/><path fill="#80abc4" d="m556 744 3 1-4 1z"/><path fill="#328acf" d="M701 725v3l-2-1z"/><path fill="#c49559" d="M771 599h5v1h-5z"/><path fill="#d98931" d="M799 545h1v5h-1z"/><path fill="#e19536" d="M804 491h1v5h-1z"/><path fill="#fa8b03" d="m396 464 4 1-2 1z"/><path fill="#fd7f01" d="M351 390h1v5h-1z"/><path fill="#c97ac7" d="M585 200h2v3l-2-1z"/><path fill="#17a26c" d="m435 781 3 2h-3z"/><path fill="#d08144" d="M539 726h3l-1 2z"/><path fill="#3791d2" d="m733 694 2 2-3-1z"/><path fill="#5ec358" d="m274 667 2 1-1 2z"/><path fill="#fd7901" d="M496 429h3l-1 2z"/><path fill="#fb8a03" d="m401 403 2 3h-2z"/><path fill="#c36cc6" d="m618 316 2 2-3-1z"/><path fill="#bc72d6" d="m652 225 3 1h-3z"/><path fill="#c879bc" d="m576 200 4 1Z"/><path fill="#3186c4" d="m581 782 1 2-2-1z"/><path fill="#16a369" d="m416 774 2 2h-2z"/><path fill="#f07407" d="m513 672 3 1Z"/><path fill="#f86101" d="m536 658 2 1-2 1z"/><path fill="#68e56b" d="m355 656 3 1Z"/><path fill="#7bcc54" d="m241 606 1 2-2-1z"/><path fill="#c5ab7f" d="M737 597h2l-1 2z"/><path fill="#d1a771" d="m705 590 1 2-2-1z"/><path fill="#b4d94b" d="m261 528 2 1-2 1z"/><path fill="#f88000" d="m470 480 3 1Z"/><path fill="#bc6dbe" d="m673 372 2 2h-2z"/><path fill="#fa7600" d="m461 295 3 1Z"/><path fill="#fe7b06" d="m492 292 3 1Z"/><path fill="#c076d4" d="m629 216 3 1Z"/><path fill="#2f8abf" d="m549 790 2 1Z"/><path fill="#3190c2" d="m538 789 2 1Z"/><path fill="#2d86c4" d="m583 782 2 1Z"/><path fill="#2d85c6" d="m608 775 2 1Z"/><path fill="#2f86c4" d="m612 774 2 1Z"/><path fill="#2c84c7" d="m648 759 2 1Z"/><path fill="#3087c9" d="m676 743 2 1Z"/><path fill="#c6863c" d="m505 733 2 1Z"/><path fill="#7faac4" d="m588 728 2 1Z"/><path fill="#84a8bf" d="m584 728 2 1Z"/><path fill="#d77d3b" d="m557 719 2 1Z"/><path fill="#d57b3e" d="m572 711 2 1Z"/><path fill="#d47a3e" d="m574 710 2 1Z"/><path fill="#d37d43" d="m586 701 2 1Z"/><path fill="#39d575" d="m436 695 2 1Z"/><path fill="#81b1c7" d="m633 688 2 1Z"/><path fill="#d37c3f" d="m602 686 2 1Z"/><path fill="#72e863" d="m334 636 2 1Z"/><path fill="#afe150" d="m326 568 2 1Z"/><path fill="#ec950f" d="m357 551 2 1Z"/><path fill="#ea940d" d="m336 543 2 1Z"/><path fill="#fe7300" d="m516 430 2 1Z"/><path fill="#fd8100" d="m436 428 2 1Z"/><path fill="#eaa474" d="m712 424 2 1Z"/><path fill="#b671ac" d="m776 407 2 1Z"/><path fill="#bf6eb5" d="m682 390 2 1Z"/><path fill="#f3a75c" d="m622 376 2 1Z"/><path fill="#f3a754" d="m606 368 2 1Z"/><path fill="#f8aa53" d="m588 361 2 1Z"/><path fill="#bb6fc4" d="m656 351 2 1Z"/><path fill="#9a54c8" d="m758 325 2 1Z"/><path fill="#c770c6" d="m602 307 2 1Z"/><path fill="#c775c3" d="m592 303 2 1Z"/><path fill="#fa7400" d="m429 303 2 1Z"/><path fill="#d983a3" d="m560 287 2 1Z"/><path fill="#c477d0" d="m608 208 2 1Z"/><path fill="#da8995" d="m560 203 2 1Z"/><path fill="#c97cc7" d="m582 201 2 1Z"/><path fill="#d080a0" d="m565 200 2 1Z"/></svg>