<svg xmlns="http://www.w3.org/2000/svg" viewBox="0 0 1024 1024" width="1024" height="1024">
  <path fill="#fe7500" d="M510.273 196.705a385 385 0 0 0 4.497-.062c2.212-.042 4.423-.059 6.636-.069l3.916-.044c5.934.758 9.221 2.76 13.084 7.295 2.888 5.816 2.145 12.648 2.09 18.98q0 2.172.005 4.344 0 4.542-.034 9.083c-.029 3.859-.026 7.717-.013 11.576.007 2.989-.001 5.978-.014 8.967a719 719 0 0 0 0 4.264c.026 17.907.026 17.907-4.785 23.535-5.123 4.567-10.027 5.669-16.717 5.989l-2.184.113c-4.761.234-9.523.376-14.29.5-22.115.597-43.163 2.667-64.464 8.824l-2.044.585C414.276 306.933 394.132 318.11 378 334l-2.059 1.84c-14.957 13.791-24.127 35.146-25.04 55.332-.045 3.214.076 5.76 1.099 8.828l-1 1c2.064 16.747 6.964 33.119 19.277 45.242C372 448 372 448 372 450l1.79.836c2.1 1.106 3.745 2.299 5.585 3.789 25.101 18.93 55.66 23.347 86.163 25.985 8.637.75 17.268 1.573 25.9 2.39l2.735.259c10.644 1.009 21.28 2.039 31.89 3.366l2.808.336c2.054.272 4.095.643 6.129 1.039l1 2c1.81.376 1.81.376 3.977.469 28.018 2.566 55.682 19.616 73.777 40.656 16.43 20.006 25.543 46.9 23.246 72.875-3.381 31.92-14.066 59.359-36 83l-2.531 2.746c-23.021 23.955-58.697 41.743-92.344 42.692-4.238-.007-6.648-1.012-10.125-3.438-4.073-4.655-4.17-9.002-4.203-14.957l-.017-2.365q-.014-2.478-.02-4.956c-.01-2.515-.04-5.03-.072-7.544a2883 2883 0 0 1-.016-4.823l-.038-2.263c.024-5.587 1.145-9.784 5.07-13.862 3.198-1.713 6.518-2.251 10.046-2.917 13.293-2.837 25.86-8.28 33.883-19.622 8.091-12.528 9.754-26.272 6.903-40.799-1.466-6.512-4.111-12.17-7.536-17.892l-1.113-1.977C529.924 580.748 510.74 572.767 495 569c-6.357-1.34-12.5-2.295-19-2v-2l-3.958-.155c-14.145-.582-28.245-1.502-42.354-2.657l-3.25-.266C382.963 558.319 340.3 550.234 305 523l-2.89-2.21C283.552 506.102 264.955 485.104 258 462v-2l-2-1c-3.343-9.522-4.729-19.753-6.25-29.687l-.53-3.379c-6.268-42.925 9.076-87.089 34.155-121.559C298.008 284.745 315.052 266.312 335 252l3.578-2.629C361.123 232.914 386.39 220.47 413 212l2.279-.737c11.37-3.624 22.89-6.247 34.596-8.513l3.85-.746c18.782-3.525 37.457-5.196 56.548-5.3"/>
  <path fill="#4ede66" d="M246 515c4.482 2.988 7.68 6.846 11.18 10.906 7.314 8.413 15.688 14.788 24.82 21.094l2.98 2.059c3.269 2.121 6.604 4.071 10.02 5.941l2.278 1.25c16.375 8.787 33.598 14.884 51.142 20.879 28.595 9.81 57.682 21.607 80.58 41.871l1.483 1.3c23.05 20.287 39.946 47.427 42.517 78.7.227 3.813.357 7.62.438 11.438l.104 2.91c.04 6.751.04 6.751-1.686 9.422-1.383 1.39-1.383 1.39-3.856 3.23-3.992-2.121-6.37-4.372-9.125-7.937C425.687 676.316 377.117 647.385 326 633c19.033 17.4 38.981 31.579 61 45 14.518 8.918 28.236 18.714 41 30l2.777 2.406c5.182 4.551 9.884 9.235 14.223 14.594l2.266 2.758c29.667 37.224 29.667 37.224 29.097 55.21C476 785 476 785 474.125 787.126c-7.665 2.146-15.54-.661-23.05-2.492-3.824-.787-7.19-.862-11.075-.633l1-2-2.373-.743C420.802 775.623 403.783 769.319 387 761l-2.483-1.2C364.91 750.286 346.79 737.85 330 724l-2.758-2.18c-18.911-15.052-35.577-32.491-49.868-51.954-1.2-1.63-2.42-3.243-3.644-4.854-5.501-7.325-10.203-15.06-14.73-23.012l-1.146-2.008c-18.202-32.263-33.537-75.748-26.624-113.25 1.147-4.084 3.013-7.517 5.77-10.742 3.15-1.575 5.52-1.348 9-1"/>
  <path fill="#fea626" d="m494.313 350.875 3.194-.008c11.272-.022 22.523.09 33.786.578l2.79.118 2.582.125 2.253.109c2.116.206 4.03.659 6.082 1.203q3.996.674 8 1.313a773 773 0 0 1 21.063 3.75l2.65.491c2.11.415 4.201.922 6.287 1.446l1 2c1.797.562 1.797.562 3.965.902 27.84 5.67 53.4 24.372 73.035 44.098l1.554 1.546C674.497 420.553 683.12 434.594 690 450l.86 1.924c13.546 31.15 12.958 68.327.702 99.764-2.505 5.31-4.908 10.077-10.562 12.312-5.946-.205-5.946-.205-8.61-2.214-1.81-2.326-2.303-4.379-3.003-7.24l-.835-3.294-.865-3.502c-6.158-24.7-6.158-24.7-19.687-45.75a569 569 0 0 1-2.687-4.625C631.547 475.489 609.209 458.696 586 448a76 76 0 0 1-3.715-1.98C566.957 437.695 546.496 431.725 529 432l-1-1a225 225 0 0 0-8.762-1.023l-2.719-.267c-9.77-.904-19.526-1.165-29.332-1.335l-5.604-.115c-15.861-.312-31.72-.376-47.583-.26v-2l-3.875-.187c-8.665-1.007-15.481-5.264-21.371-11.57-5.063-6.474-9.046-14.764-8.504-23.075q.341-1.997.75-3.98l.425-2.12c2.197-9.9 7.25-17.26 15.575-23.068 6.382-3.919 13.144-6.14 20.313-8.203 2.626-.694 2.626-.694 4.687-1.797 3.485-.374 6.998-.435 10.5-.562l3.473-.127c12.778-.397 25.557-.422 38.34-.436"/>
  <path fill="#bd68fe" d="m588 204 1-2 1 2c2.668.749 5.297 1.406 8 2s5.332 1.251 8 2l1 2c2.09.459 4.183.912 6.28 1.339 5.112 1.242 9.92 3.307 14.783 5.286l3.32 1.338c7.692 3.142 15.155 6.58 22.508 10.443A81 81 0 0 0 662 232c2 1 2 1 4.195 2.777 3.107 2.462 6.363 4.624 9.68 6.786 11.856 7.846 23.037 15.961 33.32 25.808 2.74 2.65 2.74 2.65 5.672 4.852L717 274v2l4 2v2h2c1.375 1.328 1.375 1.328 3 3.25l1.895 2.238c.694.83 1.39 1.658 2.105 2.512l2.262 2.605C743.754 304.022 753.425 318.575 762 334l1.273 2.273c6.608 11.876 12 23.992 16.727 36.727l.826 2.159c6.772 17.788 6.772 17.788 3.358 25.743-3.23 4.604-7.946 5.99-13.184 7.098-5.305.439-10.592.448-15.91.434l-4.612.015q-4.813.013-9.625-.003c-4.094-.011-8.187.009-12.282.038-3.17.018-6.34.018-9.51.012q-2.264 0-4.527.019c-16.79.119-16.79.119-23.706-6.636-2.65-4.172-4.855-8.531-7.078-12.942-4.14-8.037-8.393-15.635-13.75-22.937l-1.167-1.59c-6.14-8.312-12.598-16.42-20.09-23.562C647 339 647 339 647 337l-1.73-.754c-2.61-1.433-4.429-3.127-6.582-5.183-17.549-16.52-17.549-16.52-38.688-25.063v-2l-2.437-.75c-4.306-1.51-8.417-3.352-12.563-5.25l-1 2v-3l-2.187-.387c-6.491-1.415-13.055-3.855-17.813-8.613v-2h-3c-.902-15.596-1.133-31.182-1.177-46.801q-.01-3.252-.031-6.503c-.018-3.098-.022-6.196-.022-9.294l-.022-2.816c.022-6.413.07-12.941 4.314-18.086 7.66-3.912 16.124-.721 23.938 1.5"/>
  <path fill="#32b0fe" d="m701.438 610.688 5.721.445q3.135.249 6.27.505c4.093.33 8.188.625 12.283.913q5.305.375 10.608.76 2.607.189 5.212.37 3.687.259 7.37.538l2.213.148c6.695.521 12.048 1.796 16.885 6.633 2.59 5.061 2.04 9.589 1 15-.939 2.833-2.167 5.458-3.5 8.125l-1.077 2.21C756.24 662.831 745.75 677.853 734 692l-1.255 1.544c-11.492 14.122-24.626 26.374-39.187 37.288a419 419 0 0 0-4.242 3.234c-32.365 24.385-69.633 38.285-108.52 48.169-2.723.647-2.723.647-4.796 1.765-2.135.252-4.27.5-6.41.719-2.583.28-5.147.627-7.719 1C550.91 787.3 540.074 788.616 529 789l-3.484.125c-9.016.17-18.83.348-26.141-5.645-3.396-3.656-4.398-7.147-4.312-12.043 1.373-5.035 3.089-8.374 7.692-11.022 3.204-1.397 6.043-2.169 9.472-2.81l3.596-.696 3.802-.721C543.297 751.51 575.206 744.794 593 727c1.79-1.02 3.61-1.961 5.441-2.902 1.89-1.1 1.89-1.1 2.559-4.098a70 70 0 0 1 4-1c1.735-1.132 1.735-1.132 3.355-2.59l1.873-1.611 1.96-1.736 2.031-1.785c5.347-4.761 10.181-9.79 14.781-15.278l2.414-2.758C647.288 675.631 647.288 675.631 656 655h2l.75-2.437c4.229-12.052 4.229-12.052 7.25-13.563.703-1.988 1.362-3.99 2-6 3.995-9.404 7.953-17.532 17.469-22.215 5.389-1.198 10.499-.564 15.968-.097"/>
  <path fill="#d080a0" d="m565 200 2 1Z"/>
</svg>
